<svg xmlns="http://www.w3.org/2000/svg" viewBox="0 0 44 44">
    <defs>
        <!-- style id Capa_2 -->
        <style>
            .cls-1 {
            fill: #f95050;
            opacity: 0.95;
            }

            .cls-2 {
            fill: #f95050;
            opacity: 0.95;
            }
        </style>
    </defs>
    <g id="Capa_2" data-name="Capa 2">
        <g id="Layer_1" data-name="Layer 1">
            <path
                class="cls-1" d="M8,1.31C12.44-3.25,23.53,4.74,8,15-7.53,4.74,3.56-3.25,8,1.31Z" />
            <path class="cls-2"
                d="M31.59,32.54l-.51-1.35H26.72l-.52,1.37a4.92,4.92,0,0,1-.51,1.09.8.8,0,0,1-.69.28,1,1,0,0,1-.73-.3A.9.9,0,0,1,24,33,1.5,1.5,0,0,1,24,32.5c0-.16.13-.37.24-.65l2.75-7c.07-.2.17-.44.28-.72a4.14,4.14,0,0,1,.35-.7,1.63,1.63,0,0,1,.49-.45,1.54,1.54,0,0,1,.75-.17,1.58,1.58,0,0,1,.76.17,1.42,1.42,0,0,1,.49.45,3,3,0,0,1,.32.58c.08.21.19.48.32.83l2.81,6.93a3.49,3.49,0,0,1,.33,1.15,1,1,0,0,1-.31.68,1.1,1.1,0,0,1-1.2.22.81.81,0,0,1-.3-.25,2,2,0,0,1-.27-.48C31.75,32.89,31.66,32.7,31.59,32.54Zm-4.3-3H30.5l-1.62-4.43Z" />
        </g>
    </g>
</svg>