<svg xmlns="http://www.w3.org/2000/svg" viewBox="0 0 132.26 233.14">
    <defs>
        <style>
            .cls-1{fill:#f4f4f4;}.cls-1,.cls-2{fill-rule:evenodd;}.cls-2{fill:#b0e4ff;}.cls-3{fill:#d2a249;}.cls-4{fill:#653d00;}.cls-5{fill:#ff5370;}.cls-6{fill:#1c1000;}.cls-7{fill:none;stroke:#1c1000;stroke-linecap:round;stroke-miterlimit:10;stroke-width:0.75px;}</style>
    </defs>
    <filter id='shadow' color-interpolation-filters="sRGB">
        <feDropShadow dx="2" dy="2" stdDeviation="3" flood-opacity="0.5" />
    </filter>
    <g id="Capa_2" data-name="Capa 2">
        <g id="Capa_1-2" data-name="Capa 1">
            <g id="Page-1">
                <path id="Shape" class="cls-1"
                    d="M30.32,0a6.13,6.13,0,0,0-4.63,2.51L1.89,39.12A11.89,11.89,0,0,0,.26,44.63L0,230a3,3,0,0,0,3,3l126,.18a3,3,0,0,0,3-3l.26-187.66a10.67,10.67,0,0,0-1.77-5.42L105.1,2.52A6.67,6.67,0,0,0,100.32.1l-70-.1ZM59,27.56a7.33,7.33,0,1,1,7.32,7.34A7.32,7.32,0,0,1,59,27.56Z" />
                <path id="Shape-2" data-name="Shape" class="cls-2"
                    d="M48.57,0l0,33.75h0c.28,3.67,8.09,6.63,17.71,6.65S83.7,37.5,84,33.83h0l0-33.75L48.57,0ZM66.27,34.9a7.33,7.33,0,1,1,7.35-7.32,7.32,7.32,0,0,1-7.35,7.32Z" />
            </g>
            <path class="cls-3"
                d="M75.59,122.13c-.42,0-.75.41-1,.7A10,10,0,0,0,73,126.14a15,15,0,0,0-.54,4.66c0,.1.09.12.16.1a.21.21,0,0,0,.31-.1A12.82,12.82,0,0,1,74,128.71c.41-.68.77-1.38,1.11-2.09a7.24,7.24,0,0,0,1.09-3.68C76.19,122.58,76,122.15,75.59,122.13Z" />
            <path class="cls-3"
                d="M81.22,122.11a4.83,4.83,0,0,0-1.27,1.2A11.88,11.88,0,0,0,78.76,125a12.53,12.53,0,0,0-1.59,4.09l-.08.09c-.18.24-.38.45-.31.77a.15.15,0,0,0,.14.11c.34,0,.5-.3.7-.55s.53-.63.8-.94c.52-.58,1.08-1.12,1.63-1.68a8.49,8.49,0,0,0,2.35-3.28,1.8,1.8,0,0,0,0-1.35A.82.82,0,0,0,81.22,122.11Z" />
            <path class="cls-3"
                d="M81.08,130.83a27.59,27.59,0,0,1,2.69,1.88,6.84,6.84,0,0,0,3,1.23,2,2,0,0,0,1.4-.23l.08-.09a1.36,1.36,0,0,0-.22-.53A4.62,4.62,0,0,0,86.81,132a9.54,9.54,0,0,0-1.85-1,13.31,13.31,0,0,0-2.56-.71,17.9,17.9,0,0,0-3-.53.3.3,0,0,0-.32.24C79.71,130.3,80.46,130.5,81.08,130.83Z" />
            <path class="cls-3"
                d="M77.2,133.2a9,9,0,0,0-2-.69,12.75,12.75,0,0,0-2.89-.33,5.81,5.81,0,0,0-1.38.12c-.49.12-1,.3-1.46.42a.15.15,0,0,0-.11.2.24.24,0,0,0-.12.39,3.93,3.93,0,0,0,1.78.94c.74.23,1.48.48,2.22.72a9.9,9.9,0,0,0,3.73.6c.6,0,2.08-.25,1.63-1.2A3.06,3.06,0,0,0,77.2,133.2Z" />
            <path class="cls-3"
                d="M87.25,124.31a2.18,2.18,0,0,0,.22-.21.11.11,0,0,0,.07-.06,6.83,6.83,0,0,0,1.51-3.17,9.69,9.69,0,0,0,.37-3.82c-.12-.8-.74-2.44-1.85-2a1.52,1.52,0,0,0-.75,1.25,13,13,0,0,0-.12,1.87A16.29,16.29,0,0,0,87,121a12.77,12.77,0,0,1,.28,1.5c0,.46,0,.92,0,1.38-.07.1-.12.2-.2.3S87.15,124.39,87.25,124.31Z" />
            <path class="cls-3"
                d="M94,111.85c-.05-.64-.38-3.11-1.59-2.32a2.19,2.19,0,0,0-.7,1.57,19.1,19.1,0,0,0-.2,2.39c0,1.14.14,2.27.2,3.41s.23,2.12.32,3.18l-.15.3a.15.15,0,0,0,.24.18l.06-.07a.14.14,0,0,0,.2-.14s0-.06,0-.09a9,9,0,0,0,1-3.52A16.8,16.8,0,0,0,94,111.85Z" />
            <path class="cls-3"
                d="M103.31,113.21a7.5,7.5,0,0,0-3.74.57,21.25,21.25,0,0,0-3.73,2.15.17.17,0,0,0,.17.29l.07,0a.29.29,0,0,0,.2.11,3.7,3.7,0,0,0,1-.14l1.09-.16c.74-.11,1.49-.17,2.23-.25s1.39-.2,2.08-.33a4.56,4.56,0,0,0,1.61-.49c.4-.24.69-.67.39-1.11A1.87,1.87,0,0,0,103.31,113.21Z" />
            <path class="cls-3"
                d="M96.15,120.88a15.93,15.93,0,0,0-4.77.9,1.8,1.8,0,0,0-1.19.1.36.36,0,0,0,0,.6.14.14,0,0,0,.18.11l.18,0a6.78,6.78,0,0,1,2.14.56,16.67,16.67,0,0,0,2.81.48,9.38,9.38,0,0,0,3.5-.18c.82-.22,1.79-.83,1-1.73S97.36,120.8,96.15,120.88Z" />
            <path class="cls-3"
                d="M106.13,95.16a1.48,1.48,0,0,0-.56-.94c-.38-.19-.69.15-.85.47a4.12,4.12,0,0,0-.31,1.66c0,.72,0,1.43-.07,2.15,0,.12,0,.23,0,.35l.09.78c.1.88.14,1.75.18,2.64,0,.42.1,1,.07,1.46a.24.24,0,0,0,.13-.13,2.32,2.32,0,0,0,.07-.38s.06,0,.07,0a13.76,13.76,0,0,1,.69-2,11.36,11.36,0,0,0,.57-2A9.06,9.06,0,0,0,106.13,95.16Z" />
            <path class="cls-3"
                d="M110.29,102.49c1.16-.22,2.34-.25,3.47-.58l.13,0a4,4,0,0,0,.69-.4c.39-.29.78-.78.55-1.29s-1-.64-1.48-.66a9.8,9.8,0,0,0-4.49,1.3,17.43,17.43,0,0,0-4.45,3.31.12.12,0,0,0,0,.09l-.09.13a.26.26,0,0,0,0,.21A34.79,34.79,0,0,1,110.29,102.49Z" />
            <path class="cls-3"
                d="M109.18,90c-.51.12-.67.69-.72,1.14s-.06,1.2-.1,1.79c-.06.89-.07,1.79-.12,2.68,0,.46,0,.92-.07,1.38a6,6,0,0,0-.06,1.27.21.21,0,0,0,.14.16.11.11,0,0,0,.12.07c.4,0,.56-.43.68-.77.2-.54.31-1.11.5-1.66s.53-1.28.72-2a7.32,7.32,0,0,0,.26-1.73,3.65,3.65,0,0,0-.26-1.6C110.08,90.33,109.69,89.84,109.18,90Z" />
            <path class="cls-3"
                d="M115.47,80a35.19,35.19,0,0,0-1.75,4.5.13.13,0,0,0,.09.17v0c0,.27-.56,1.65-.43,1.46s1.4-1.89,1.68-2.15.69-.66,1-1c.65-.66,1.28-1.34,1.9-2a22.8,22.8,0,0,0,1.84-2.2,3.55,3.55,0,0,0,.86-2.18c0-.59-.37-1.07-1-.89a5.28,5.28,0,0,0-1.62.94A9.76,9.76,0,0,0,115.47,80Z" />
            <path class="cls-3"
                d="M109.2,81.81c1.31,1.6,2.51,3.31,3.68,5,.08.12.31.13.34,0a1.17,1.17,0,0,0,0-.46,12.81,12.81,0,0,0-1.08-5.24,9,9,0,0,0-2.71-3.88c-.81-.65-2.36-1-2.49.47a3.25,3.25,0,0,0,.69,2A25.16,25.16,0,0,0,109.2,81.81Z" />
            <path class="cls-3"
                d="M114.29,77.46a15.88,15.88,0,0,0-.94-2.69,14.19,14.19,0,0,0-2.83-4.66,2.34,2.34,0,0,0-1.84-.84c-.57.09-.69.62-.65,1.12a2.79,2.79,0,0,0,.92,1.82c.66.66,1.33,1.28,1.93,2s1.31,1.71,1.91,2.59a10,10,0,0,1,.77,1.29,5.37,5.37,0,0,1,.37,1.24v0a1.6,1.6,0,0,1,0,.21.29.29,0,0,0,.56,0,2.09,2.09,0,0,0-.11-1.13A4.37,4.37,0,0,0,114.29,77.46Z" />
            <path class="cls-3"
                d="M117.91,63.48c-.51-.28-1,.1-1.38.48-1.06,1.22-1.13,3.16-1.39,4.67-.19,1.1-.34,2.19-.46,3.3a13.57,13.57,0,0,0-.1,1.69c0,.09,0,.18,0,.27s-.16.38-.22.57a12.52,12.52,0,0,0-.15,1.61.27.27,0,0,0,.14.26c.07-.23.13-.46.22-.7a14.9,14.9,0,0,1,.82-1.93l0-.1c.4-1,.77-1.92,1.14-2.89s.81-1.95,1.1-3c.25-.86.58-1.76.75-2.64A1.49,1.49,0,0,0,117.91,63.48Z" />
            <path class="cls-3"
                d="M100.78,58.16A29.2,29.2,0,0,0,103,60.35a8.12,8.12,0,0,0-6.63-1.08,5.39,5.39,0,0,0-1.77.9,2.41,2.41,0,0,0-1,1.44c0,.68.69.94,1.25,1a12.6,12.6,0,0,0,2.72-.41c1.2-.19,2.43-.32,3.64-.42a7.68,7.68,0,0,1,1.59,0c.57.06,1.11.26,1.67.31a.31.31,0,0,0,.16-.58,4.4,4.4,0,0,0-.5-.21l0,0a.24.24,0,0,0,.16-.22,14.2,14.2,0,0,0-1.37-4.57,20.13,20.13,0,0,0-2-4.08c-.56-.79-1.71-1.78-2.56-.73s.1,3,.63,4A14.57,14.57,0,0,0,100.78,58.16Z" />
            <path class="cls-3"
                d="M89.91,53.43a15.63,15.63,0,0,0,2.2,1.6,5.27,5.27,0,0,0,2.26.72h0a8.43,8.43,0,0,0-6.2,1.7,6.27,6.27,0,0,0-1.47,1.69c-.29.51-.62,1.25-.24,1.79s1.25.44,1.82.28a11.7,11.7,0,0,0,2.27-1c1.09-.59,2.16-1.23,3.27-1.8a9.66,9.66,0,0,1,3.26-1.38.34.34,0,0,0,0-.67,1.74,1.74,0,0,0-.32,0,8.86,8.86,0,0,0-1.43-.47.13.13,0,0,0,0-.1c-.37-.56-.76-1.13-1.09-1.73-.46-.82-1-1.59-1.53-2.39s-1-1.62-1.57-2.39a6.81,6.81,0,0,0-1.54-1.75,1.53,1.53,0,0,0-1.87-.06,2,2,0,0,0-.43,1.82A7.26,7.26,0,0,0,89.91,53.43Z" />
            <path class="cls-3"
                d="M70.71,60.05a18.33,18.33,0,0,0,3.82.61,16.2,16.2,0,0,0,2.09,0c.51,0,1.44-.07,1.6-.67v0a.23.23,0,0,0-.11-.37c-.77-.22-1.52-.5-2.29-.73s-1.36-.39-2-.6a4.25,4.25,0,0,0-3.51,0,1,1,0,0,0-.57,1.08C69.84,59.78,70.32,60,70.71,60.05Z" />
            <path class="cls-3"
                d="M76.5,65.57a2.75,2.75,0,0,0,.29,1.55.61.61,0,0,0,.92.21,2.67,2.67,0,0,0,.7-1.12c.23-.56.47-1.11.7-1.67a16.35,16.35,0,0,0,.78-2.46,17.87,17.87,0,0,0,.47-2.71c0-.32-.43-.35-.54-.1a4.89,4.89,0,0,0-2.1,2.48A8.94,8.94,0,0,0,76.5,65.57Z" />
            <path class="cls-3"
                d="M71.13,66.33c.63-.7,1.22-1.44,1.85-2.14.33-.37.66-.76,1-1.12a4.68,4.68,0,0,0,.89-1c.14-.26-.2-.58-.42-.39,0,0,0,0-.09,0a9.38,9.38,0,0,0-6.65,4.67A4.37,4.37,0,0,0,67.16,68a.71.71,0,0,0,.87.78,3.72,3.72,0,0,0,1.38-.87A12.76,12.76,0,0,0,71.13,66.33Z" />
            <path class="cls-4"
                d="M66.19,137.69a13.32,13.32,0,0,1,3.39-4.51,12.07,12.07,0,0,1,5.72-2.51c2.26-.44,4.59-.64,6.87-.93,1.29-.17,3.58-.18,4.11-1.67.08-.24-.17-.4-.37-.37-.88.13-1.69.59-2.59.74s-1.95.27-2.93.41a51.8,51.8,0,0,0-7.12,1.28,12.54,12.54,0,0,0-7.83,7.12c-.22.5.51.94.75.44Z" />
            <path class="cls-4"
                d="M83.18,126.49c1.59.32,3.15-1.19,4.42-1.94a29.34,29.34,0,0,0,4.71-3.67,23.58,23.58,0,0,0,3.75-4.23,14,14,0,0,0,1.36-2.45c.3-.73.83-1.9.29-2.63a.26.26,0,0,0-.38,0c-.49.58-.5,1.48-.78,2.18a13,13,0,0,1-1.37,2.44,24.28,24.28,0,0,1-3.47,4,27.09,27.09,0,0,1-4.23,3.48,29,29,0,0,1-4.3,2.44c-.2.08-.26.41,0,.46Z" />
            <path class="cls-4"
                d="M103.67,107.5a39.73,39.73,0,0,1,2.14-4.64c.9-1.45,1.93-2.81,3-4.17a16.86,16.86,0,0,1,3.34-3.46c.64-.47,1.33-.88,2-1.33s1.08-.67,1.26-1.3a.25.25,0,0,0-.31-.3,6.07,6.07,0,0,0-1.78,1.12c-.63.42-1.27.81-1.87,1.28a18,18,0,0,0-3.3,3.46,37.49,37.49,0,0,0-3,4.32,24.12,24.12,0,0,0-1.81,4.89c0,.18.24.32.33.13Z" />
            <path class="cls-4"
                d="M112.36,90c1-1.37,1.31-3.58,1.63-5.23a41.81,41.81,0,0,0,.71-5.79,37.45,37.45,0,0,0-.18-5.8c-.18-1.54-.42-3.85-1.59-5a.35.35,0,0,0-.58.15,4.22,4.22,0,0,0,.53,2.34,11,11,0,0,1,.66,2.45,30.81,30.81,0,0,1,.34,5.84,30.23,30.23,0,0,1-.7,5.76c-.2.89-.44,1.76-.72,2.63a12.68,12.68,0,0,0-.72,2.47c0,.36.45.39.62.16Z" />
            <path class="cls-4"
                d="M86.2,54.7a6.47,6.47,0,0,0,2.55.45,27.73,27.73,0,0,1,3.63.47A22.39,22.39,0,0,1,99,57.85a20.39,20.39,0,0,1,5.12,3.92,20.18,20.18,0,0,1,2.23,2.65c.45.65.72,1.74,1.52,2a.31.31,0,0,0,.33-.13c.48-.76-.24-1.72-.66-2.36a20.82,20.82,0,0,0-2.19-2.68,22,22,0,0,0-5.37-4A25.8,25.8,0,0,0,86.3,54.34c-.18,0-.28.27-.1.36Z" />
            <path class="cls-4"
                d="M82.81,58.32c-1.4-.31-2.77.5-4,1a40.73,40.73,0,0,0-4,1.66,18.43,18.43,0,0,0-3.24,2c-.69.55-2.1,1.65-1.9,2.67a.25.25,0,0,0,.31.18c.39-.12.71-.55,1-.82s.83-.77,1.29-1.11a25.28,25.28,0,0,1,3-1.85,36.53,36.53,0,0,1,3.45-1.67c.66-.27,1.33-.49,2-.76a6,6,0,0,1,2-.66c.32,0,.42-.51.08-.59Z" />
            <path class="cls-5"
                d="M81.09,57.42a8.53,8.53,0,0,0,3.73-.68A44,44,0,0,0,89,54.94a.23.23,0,0,0,.12-.17.16.16,0,0,0,0-.25c-.31-.39-.55-.84-.85-1.24A12.81,12.81,0,0,0,87,51.81a10.44,10.44,0,0,0-3.66-2.47c-1.16-.42-2.6-.23-3,1.14-.25,1,.58,1.7,1.35,2.13a16.35,16.35,0,0,0,1.65.75l.11,0a6.77,6.77,0,0,0-2.59.78c-.66.37-1.58,1-1.74,1.77C79,57,80.34,57.34,81.09,57.42Z" />
            <path class="cls-5"
                d="M112.24,70.05c.17.18.35.35.54.52.85.73,1-.59,1.13-1.15s.32-1.08.47-1.63c.21-.81.39-1.64.55-2.47a12.14,12.14,0,0,0,0-3.56c-.13-.74-.3-1.82-1-2.27-.92-.6-1.64.6-1.84,1.34a11.4,11.4,0,0,0-.34,3.06v0a14.18,14.18,0,0,0-.9-2.17c-.39-.71-1.5-2.66-2.57-1.89a1.78,1.78,0,0,0-.48,1.4,5.44,5.44,0,0,0,.31,2.12,15.65,15.65,0,0,0,2.16,3.84A27.14,27.14,0,0,0,112.24,70.05Z" />
            <path class="cls-5"
                d="M120.21,90.16a6.75,6.75,0,0,0-3,.43A6.27,6.27,0,0,0,118.33,88c.08-.45.12-1-.42-1.24s-1.16.27-1.57.54a7.48,7.48,0,0,0-2.4,2.94,13.79,13.79,0,0,0-.78,2l-.27,1.51c-.07.37-.14.75-.23,1.12.53-.07,1.08-.07,1.61-.09s1.29-.07,1.93-.14a15.62,15.62,0,0,0,3.43-.77c.9-.29,2-.84,2.23-1.88S121.07,90.3,120.21,90.16Z" />
            <path class="cls-5"
                d="M100.08,106a8,8,0,0,0-1.41,2.35c0-.13,0-.26,0-.39a4,4,0,0,0-.33-1.22c-.25-.51-.7-1.21-1.32-1.3-.83-.11-1.12,1-1.2,1.6a8.2,8.2,0,0,0,.35,2.87,13,13,0,0,0,.54,1.74,6.94,6.94,0,0,1,.57,1.45c0,.16.19.19.32.13a.18.18,0,0,0,.14-.06c.25-.24.5-.49.76-.72s.64-.47.94-.75a16.56,16.56,0,0,0,1.17-1.2,8.31,8.31,0,0,0,1.83-3c.19-.66.44-2.22-.51-2.46C101.2,104.86,100.49,105.59,100.08,106Z" />
            <path class="cls-5"
                d="M86.36,129.42c1,.26,2,.45,2.94.63.8.16,3.72.74,3.12-1A3.19,3.19,0,0,0,91,127.52a2.53,2.53,0,0,0-.83-.31l-.24,0a2.36,2.36,0,0,0,1-.65,1.06,1.06,0,0,0-.35-1.63,3.16,3.16,0,0,0-2,.21,8.44,8.44,0,0,0-2.41,1.32,6.7,6.7,0,0,0-1.88,2.22C85,128.83,85.68,129.23,86.36,129.42Z" />
            <path class="cls-3"
                d="M54.91,122.94A7.23,7.23,0,0,0,56,126.62c.35.71.71,1.41,1.11,2.09a12.88,12.88,0,0,1,1.15,2.09.2.2,0,0,0,.3.1c.07,0,.17,0,.17-.1a15.26,15.26,0,0,0-.54-4.66,9.82,9.82,0,0,0-1.66-3.31c-.22-.29-.56-.72-1-.7S55,122.58,54.91,122.94Z" />
            <path class="cls-3"
                d="M48.74,122.28a1.75,1.75,0,0,0,0,1.35,8.49,8.49,0,0,0,2.35,3.28c.55.56,1.1,1.1,1.63,1.68.27.31.54.62.79.94s.37.53.71.55a.16.16,0,0,0,.14-.11c.07-.32-.13-.53-.32-.77l-.07-.09a12.55,12.55,0,0,0-1.6-4.09,11.81,11.81,0,0,0-1.18-1.71,4.83,4.83,0,0,0-1.27-1.2A.81.81,0,0,0,48.74,122.28Z" />
            <path class="cls-3"
                d="M50.06,130.83a26.43,26.43,0,0,0-2.69,1.88,6.84,6.84,0,0,1-3,1.23,2,2,0,0,1-1.4-.23l-.08-.09a1.51,1.51,0,0,1,.21-.53A4.81,4.81,0,0,1,44.33,132a9.26,9.26,0,0,1,1.85-1,13.31,13.31,0,0,1,2.56-.71,17.9,17.9,0,0,1,3-.53.31.31,0,0,1,.32.24C51.42,130.3,50.68,130.5,50.06,130.83Z" />
            <path class="cls-3"
                d="M52.57,134.37c-.45.95,1,1.16,1.62,1.2a10,10,0,0,0,3.74-.6c.74-.24,1.48-.49,2.22-.72a3.9,3.9,0,0,0,1.77-.94.24.24,0,0,0-.11-.39.16.16,0,0,0-.11-.2c-.5-.12-1-.3-1.46-.42a5.9,5.9,0,0,0-1.39-.12,12.81,12.81,0,0,0-2.89.33,9.1,9.1,0,0,0-2,.69A3,3,0,0,0,52.57,134.37Z" />
            <path class="cls-3"
                d="M44.08,124.16l-.2-.3c0-.46,0-.92,0-1.38a11,11,0,0,1,.27-1.5,15.35,15.35,0,0,0,.28-2.79,11.67,11.67,0,0,0-.12-1.87,1.48,1.48,0,0,0-.75-1.25c-1.1-.46-1.72,1.18-1.84,2a9.51,9.51,0,0,0,.37,3.82,6.72,6.72,0,0,0,1.5,3.17.13.13,0,0,0,.07.06c.08.07.15.15.23.21S44.17,124.28,44.08,124.16Z" />
            <path class="cls-3"
                d="M37.67,116.74a9.16,9.16,0,0,0,1,3.52v.09a.14.14,0,0,0,.2.14.2.2,0,0,0,.06.07.15.15,0,0,0,.24-.18c-.06-.1-.1-.2-.15-.3.09-1.06.25-2.12.31-3.18s.22-2.27.21-3.41a21.2,21.2,0,0,0-.2-2.39,2.23,2.23,0,0,0-.7-1.57c-1.21-.79-1.54,1.68-1.59,2.32A16.79,16.79,0,0,0,37.67,116.74Z" />
            <path class="cls-3"
                d="M26.47,113.81c-.3.44,0,.87.39,1.11a4.56,4.56,0,0,0,1.61.49c.69.13,1.38.25,2.08.33s1.49.14,2.23.25l1.08.16a3.83,3.83,0,0,0,1,.14.25.25,0,0,0,.19-.11l.08,0a.17.17,0,0,0,.17-.29,21.62,21.62,0,0,0-3.73-2.15,7.52,7.52,0,0,0-3.74-.57A1.87,1.87,0,0,0,26.47,113.81Z" />
            <path class="cls-3"
                d="M31.13,121.67c-.78.9.2,1.51,1,1.73a9.33,9.33,0,0,0,3.49.18,16.5,16.5,0,0,0,2.81-.48,6.85,6.85,0,0,1,2.14-.56l.19,0a.14.14,0,0,0,.18-.11.36.36,0,0,0,0-.6,1.76,1.76,0,0,0-1.18-.1,16,16,0,0,0-4.77-.9C33.78,120.8,32,120.65,31.13,121.67Z" />
            <path class="cls-3"
                d="M25,95.16a1.44,1.44,0,0,1,.56-.94c.38-.19.69.15.85.47a4.12,4.12,0,0,1,.31,1.66c0,.72,0,1.43.07,2.15v.35c0,.26-.05.52-.08.78-.1.88-.15,1.75-.18,2.64a13.23,13.23,0,0,0-.07,1.46.24.24,0,0,1-.13-.13,2.33,2.33,0,0,1-.08-.38,0,0,0,0,1-.06,0,12.7,12.7,0,0,0-.7-2,12.32,12.32,0,0,1-.57-2A8.93,8.93,0,0,1,25,95.16Z" />
            <path class="cls-3"
                d="M20.84,102.49c-1.15-.22-2.34-.25-3.47-.58l-.12,0a3.65,3.65,0,0,1-.69-.4c-.39-.29-.78-.78-.55-1.29s1-.64,1.48-.66a9.84,9.84,0,0,1,4.49,1.3,17.79,17.79,0,0,1,4.45,3.31.16.16,0,0,1,0,.09,1.47,1.47,0,0,1,.1.13.26.26,0,0,1,0,.21A34.89,34.89,0,0,0,20.84,102.49Z" />
            <path class="cls-3"
                d="M20.87,90.74a3.8,3.8,0,0,0-.27,1.6,7.33,7.33,0,0,0,.27,1.73c.18.67.49,1.29.72,2s.3,1.12.5,1.66c.12.34.28.72.67.77a.12.12,0,0,0,.13-.07.2.2,0,0,0,.13-.16A5.43,5.43,0,0,0,23,97c0-.46-.06-.92-.08-1.38,0-.89-.05-1.79-.11-2.68,0-.59,0-1.2-.11-1.79s-.2-1-.71-1.14S21.06,90.33,20.87,90.74Z" />
            <path class="cls-3"
                d="M13.09,76.6a5.21,5.21,0,0,0-1.63-.94c-.64-.18-1,.3-1,.89a3.43,3.43,0,0,0,.86,2.18,22.7,22.7,0,0,0,1.83,2.2c.63.68,1.26,1.36,1.91,2,.33.34.66.68,1,1s1.47,1.84,1.69,2.15-.41-1.19-.43-1.46v0a.15.15,0,0,0,.09-.17A38.42,38.42,0,0,0,15.67,80,9.76,9.76,0,0,0,13.09,76.6Z" />
            <path class="cls-3"
                d="M23.55,79.69a3.31,3.31,0,0,0,.69-2c-.13-1.45-1.68-1.12-2.49-.47A9,9,0,0,0,19,81.08,12.81,12.81,0,0,0,18,86.32a.89.89,0,0,0,0,.46c0,.17.26.16.34,0,1.17-1.7,2.36-3.41,3.68-5C22.5,81.12,23.06,80.43,23.55,79.69Z" />
            <path class="cls-3"
                d="M16.7,78.44a2.3,2.3,0,0,0-.11,1.13.3.3,0,0,0,.57,0c0-.07,0-.14,0-.21s0,0,0,0a5.34,5.34,0,0,1,.36-1.24,11.26,11.26,0,0,1,.77-1.29c.61-.88,1.24-1.76,1.92-2.59s1.27-1.35,1.93-2a2.78,2.78,0,0,0,.91-1.82c0-.5-.07-1-.64-1.12a2.32,2.32,0,0,0-1.84.84,14.19,14.19,0,0,0-2.83,4.66,15.88,15.88,0,0,0-.94,2.69A4.37,4.37,0,0,0,16.7,78.44Z" />
            <path class="cls-3"
                d="M13.23,63.48c.51-.28,1,.1,1.38.48,1.05,1.22,1.13,3.16,1.39,4.67.19,1.1.34,2.19.45,3.3a11.89,11.89,0,0,1,.1,1.69c0,.09,0,.18,0,.27a4.37,4.37,0,0,1,.21.57,11,11,0,0,1,.15,1.61.26.26,0,0,1-.13.26c-.07-.23-.14-.46-.22-.7a16.44,16.44,0,0,0-.82-1.93l0-.1c-.4-1-.77-1.92-1.15-2.89s-.8-1.95-1.1-3a27.24,27.24,0,0,1-.74-2.64A1.49,1.49,0,0,1,13.23,63.48Z" />
            <path class="cls-3"
                d="M32.21,55.59c.53-1,1.49-2.88.63-4s-2-.06-2.57.73a21.23,21.23,0,0,0-2,4.08A14.18,14.18,0,0,0,26.89,61a.22.22,0,0,0,.16.22l-.06,0a5.16,5.16,0,0,0-.49.21.31.31,0,0,0,.16.58c.56,0,1.1-.25,1.66-.31a7.78,7.78,0,0,1,1.6,0c1.21.1,2.44.23,3.64.42a12.6,12.6,0,0,0,2.72.41c.56,0,1.3-.3,1.25-1a2.5,2.5,0,0,0-1-1.44,5.34,5.34,0,0,0-1.78-.9,8.09,8.09,0,0,0-6.62,1.08,31.12,31.12,0,0,0,2.26-2.19A14.57,14.57,0,0,0,32.21,55.59Z" />
            <path class="cls-3"
                d="M43.86,49.33a2,2,0,0,0-.43-1.82,1.53,1.53,0,0,0-1.87.06A6.84,6.84,0,0,0,40,49.32c-.55.77-1,1.58-1.56,2.39s-1.07,1.57-1.54,2.39c-.33.6-.71,1.17-1.09,1.73a.18.18,0,0,0,0,.1,8.86,8.86,0,0,0-1.43.47,1.82,1.82,0,0,0-.33,0,.34.34,0,0,0,0,.67,9.63,9.63,0,0,1,3.27,1.38c1.11.57,2.17,1.21,3.27,1.8a11.7,11.7,0,0,0,2.27,1c.57.16,1.42.3,1.82-.28s0-1.28-.25-1.79A5.94,5.94,0,0,0,43,57.46a8.39,8.39,0,0,0-6.19-1.7h0A5.31,5.31,0,0,0,39,55a16.24,16.24,0,0,0,2.2-1.6A7.26,7.26,0,0,0,43.86,49.33Z" />
            <path class="cls-3"
                d="M61.44,59.36c.15-.48-.21-.85-.58-1.08a4.23,4.23,0,0,0-3.5,0c-.68.21-1.36.4-2,.6s-1.51.51-2.28.73a.22.22,0,0,0-.11.37s0,0,0,0c.16.6,1.09.63,1.59.67a16.2,16.2,0,0,0,2.09,0,18.42,18.42,0,0,0,3.83-.61C60.81,60,61.3,59.78,61.44,59.36Z" />
            <path class="cls-3"
                d="M53.42,61.75a4.86,4.86,0,0,0-2.11-2.48c-.1-.25-.55-.22-.53.1a17.84,17.84,0,0,0,.46,2.71A16.39,16.39,0,0,0,52,64.54c.23.56.47,1.11.7,1.67a2.48,2.48,0,0,0,.7,1.12.61.61,0,0,0,.92-.21,2.66,2.66,0,0,0,.28-1.55A8.93,8.93,0,0,0,53.42,61.75Z" />
            <path class="cls-3"
                d="M61.73,67.9a3.72,3.72,0,0,0,1.38.87A.71.71,0,0,0,64,68a4.54,4.54,0,0,0-.56-1.71,9.38,9.38,0,0,0-6.65-4.67.16.16,0,0,0-.1,0c-.22-.19-.55.13-.41.39a4.68,4.68,0,0,0,.89,1c.35.36.68.75,1,1.12.63.7,1.22,1.44,1.85,2.14A11.66,11.66,0,0,0,61.73,67.9Z" />
            <path class="cls-4"
                d="M65,137.69a13.32,13.32,0,0,0-3.39-4.51,12.1,12.1,0,0,0-5.73-2.51c-2.25-.44-4.58-.64-6.86-.93-1.3-.17-3.58-.18-4.11-1.67-.09-.24.16-.4.37-.37.88.13,1.69.59,2.58.74s2,.27,2.94.41a52.07,52.07,0,0,1,7.12,1.28,12.53,12.53,0,0,1,7.82,7.12c.22.5-.5.94-.74.44Z" />
            <path class="cls-4"
                d="M48,126.49c-1.59.32-3.16-1.19-4.43-1.94a30.25,30.25,0,0,1-4.71-3.67,23.52,23.52,0,0,1-3.74-4.23,14,14,0,0,1-1.36-2.45c-.3-.73-.83-1.9-.29-2.63a.24.24,0,0,1,.37,0c.5.58.51,1.48.79,2.18A13.56,13.56,0,0,0,36,116.14a24.82,24.82,0,0,0,3.48,4,26.64,26.64,0,0,0,4.23,3.48A29,29,0,0,0,48,126c.2.08.26.41,0,.46Z" />
            <path class="cls-4"
                d="M27.47,107.5a41.44,41.44,0,0,0-2.14-4.64c-.9-1.45-1.93-2.81-3-4.17A17.12,17.12,0,0,0,19,95.23c-.65-.47-1.34-.88-2-1.33s-1.09-.67-1.26-1.3a.25.25,0,0,1,.3-.3,6.25,6.25,0,0,1,1.79,1.12c.63.42,1.27.81,1.87,1.28A18.34,18.34,0,0,1,23,98.16,37.41,37.41,0,0,1,26,102.48a23.54,23.54,0,0,1,1.81,4.89c.06.18-.23.32-.32.13Z" />
            <path class="cls-4"
                d="M18.78,90c-1-1.37-1.31-3.58-1.63-5.23a41.81,41.81,0,0,1-.71-5.79,37.45,37.45,0,0,1,.17-5.8c.18-1.54.43-3.85,1.6-5a.35.35,0,0,1,.58.15,4.15,4.15,0,0,1-.54,2.34,11.5,11.5,0,0,0-.65,2.45,30,30,0,0,0-.35,5.84,31.92,31.92,0,0,0,.7,5.76c.2.89.45,1.76.73,2.63a13.42,13.42,0,0,1,.72,2.47c0,.36-.45.39-.62.16Z" />
            <path class="cls-4"
                d="M44.94,54.7a6.51,6.51,0,0,1-2.55.45,27.73,27.73,0,0,0-3.63.47,22.39,22.39,0,0,0-6.57,2.23,20.39,20.39,0,0,0-5.12,3.92,20.26,20.26,0,0,0-2.24,2.65c-.44.65-.72,1.74-1.51,2A.3.3,0,0,1,23,66.3c-.48-.76.24-1.72.66-2.36a20,20,0,0,1,2.19-2.68,21.58,21.58,0,0,1,5.37-4,25.77,25.77,0,0,1,13.63-2.91c.18,0,.28.27.1.36Z" />
            <path class="cls-4"
                d="M48.33,58.32c1.39-.31,2.76.5,4,1a40.73,40.73,0,0,1,4,1.66,18.35,18.35,0,0,1,3.23,2c.7.55,2.11,1.65,1.91,2.67a.25.25,0,0,1-.31.18c-.4-.12-.71-.55-1-.82s-.84-.77-1.3-1.11a25.16,25.16,0,0,0-3-1.85,36.7,36.7,0,0,0-3.46-1.67c-.65-.27-1.32-.49-2-.76a6.17,6.17,0,0,0-2-.66c-.33,0-.43-.51-.08-.59Z" />
            <path class="cls-5"
                d="M52,56c-.16-.81-1.09-1.4-1.74-1.77a6.77,6.77,0,0,0-2.59-.78l.11,0a15.24,15.24,0,0,0,1.64-.75c.77-.43,1.61-1.14,1.35-2.13-.36-1.37-1.8-1.56-2.95-1.14a10.48,10.48,0,0,0-3.67,2.47,13.85,13.85,0,0,0-1.29,1.47c-.3.4-.53.85-.85,1.24a.16.16,0,0,0,.05.25.24.24,0,0,0,.13.17,45,45,0,0,0,4.16,1.8,8.58,8.58,0,0,0,3.73.68C50.79,57.34,52.17,57,52,56Z" />
            <path class="cls-5"
                d="M18.89,70.05a6.53,6.53,0,0,1-.53.52c-.85.73-1-.59-1.13-1.15s-.33-1.08-.47-1.63c-.21-.81-.4-1.64-.55-2.47a12.14,12.14,0,0,1,0-3.56c.12-.74.29-1.82,1-2.27.92-.6,1.64.6,1.85,1.34a11.4,11.4,0,0,1,.33,3.06l0,0a13.24,13.24,0,0,1,.9-2.17c.38-.71,1.5-2.66,2.57-1.89.42.3.45.94.48,1.4a5.63,5.63,0,0,1-.31,2.12,16,16,0,0,1-2.16,3.84A27.22,27.22,0,0,1,18.89,70.05Z" />
            <path class="cls-5"
                d="M10.92,90.16a6.71,6.71,0,0,1,3,.43A6.25,6.25,0,0,1,12.81,88c-.08-.45-.12-1,.41-1.24s1.17.27,1.58.54a7.65,7.65,0,0,1,2.4,2.94,12.65,12.65,0,0,1,.77,2c.1.5.18,1,.27,1.51s.15.75.24,1.12c-.53-.07-1.08-.07-1.61-.09s-1.29-.07-1.93-.14a15.62,15.62,0,0,1-3.43-.77c-.9-.29-2-.84-2.23-1.88S10.07,90.3,10.92,90.16Z" />
            <path class="cls-5"
                d="M29.26,105c-1,.24-.7,1.8-.51,2.46a8.31,8.31,0,0,0,1.83,3,16.43,16.43,0,0,0,1.16,1.2c.31.28.63.49.94.75s.52.48.77.72a.16.16,0,0,0,.14.06c.13.06.3,0,.32-.13a6.43,6.43,0,0,1,.57-1.45,13,13,0,0,0,.53-1.74,8,8,0,0,0,.36-2.87c-.08-.63-.37-1.71-1.21-1.6-.62.09-1.07.79-1.32,1.3a4.31,4.31,0,0,0-.32,1.22l-.06.39a7.71,7.71,0,0,0-1.4-2.35C30.64,105.59,29.94,104.86,29.26,105Z" />
            <path class="cls-5"
                d="M44.77,129.42c-1,.26-2,.45-2.93.63-.8.16-3.72.74-3.13-1a3.2,3.2,0,0,1,1.46-1.58,2.48,2.48,0,0,1,.82-.31l.25,0a2.45,2.45,0,0,1-1.05-.65,1.06,1.06,0,0,1,.36-1.63,3.16,3.16,0,0,1,2,.21,8.58,8.58,0,0,1,2.41,1.32,6.67,6.67,0,0,1,1.87,2.22C46.1,128.83,45.46,129.23,44.77,129.42Z" />
            <path class="cls-4"
                d="M29.65,90.14a6.41,6.41,0,0,0,.68,2.06,4,4,0,0,0,1.4,1.47,4.19,4.19,0,0,0,2.3.57,6.51,6.51,0,0,0,3-.69,6.93,6.93,0,0,0,2.37-1.91,4.14,4.14,0,0,0,.38-.55q.16-.28.36-.57a2.93,2.93,0,0,1,.28-.36.47.47,0,0,1,.37-.2.38.38,0,0,1,.28.12.43.43,0,0,1,.1.29,1,1,0,0,1-.1.4,3.75,3.75,0,0,1-.21.37,8.55,8.55,0,0,1-1.37,1.78,10,10,0,0,1-1.78,1.41,9.21,9.21,0,0,1-2.07.94,7.65,7.65,0,0,1-2.22.33,6,6,0,0,1-2.87-.66,6.32,6.32,0,0,1-2.06-1.74,7.62,7.62,0,0,1-1.25-2.48,10.05,10.05,0,0,1-.42-2.89A12.94,12.94,0,0,1,27,85.5a14.09,14.09,0,0,1,.68-2.42,14.52,14.52,0,0,1,1.13-2.31,9.93,9.93,0,0,1,1.55-1.94,6.71,6.71,0,0,1,2-1.33A5.64,5.64,0,0,1,34.7,77a3.23,3.23,0,0,1,1.33.27,3.09,3.09,0,0,1,1,.71A3,3,0,0,1,37.75,79,3.76,3.76,0,0,1,38,80.39c0,.21,0,.51-.05.9s-.08.79-.15,1.2a8.46,8.46,0,0,1-.29,1.13,1.37,1.37,0,0,1-.45.7.92.92,0,0,1-.57.17,1.11,1.11,0,0,1-.41-.08.34.34,0,0,1-.19-.35,1.28,1.28,0,0,1,.06-.35c0-.13.09-.28.15-.43s.13-.3.18-.44.1-.27.14-.36a7.64,7.64,0,0,0,.22-1,6.38,6.38,0,0,0,.09-1A2.33,2.33,0,0,0,36.25,79a1.59,1.59,0,0,0-1.36-.61,2.83,2.83,0,0,0-1.6.5,5.48,5.48,0,0,0-1.35,1.33A11.9,11.9,0,0,0,30.87,82a16.06,16.06,0,0,0-1.24,4.12,10.11,10.11,0,0,0-.16,1.67A14.79,14.79,0,0,0,29.65,90.14Z" />
            <path class="cls-4"
                d="M45.93,86.89a11.8,11.8,0,0,0-1,1.3c-.35.53-.72,1.11-1.1,1.74s-.74,1.24-1.07,1.83-.62,1.13-.87,1.6-.42.81-.51,1-.14.3-.23.46a3.46,3.46,0,0,1-.29.45,1.27,1.27,0,0,1-.37.36.81.81,0,0,1-.48.15.57.57,0,0,1-.42-.16,1.21,1.21,0,0,1-.25-.37,1.26,1.26,0,0,1-.12-.47,3.89,3.89,0,0,1,0-.44,8.52,8.52,0,0,1,.1-1.24c.06-.41.12-.82.17-1.24.09-.76.19-1.52.27-2.28s.18-1.51.26-2.28.21-1.84.34-2.92.3-2.19.5-3.3.42-2.19.69-3.22a13.2,13.2,0,0,1,1-2.68,4.28,4.28,0,0,1,.34-.57,4.69,4.69,0,0,1,.46-.54,2.18,2.18,0,0,1,.56-.41,1.52,1.52,0,0,1,.65-.16.92.92,0,0,1,.66.24,1.76,1.76,0,0,1,.4.59,3,3,0,0,1,.19.75,6.22,6.22,0,0,1,.05.68A17.11,17.11,0,0,1,45,81a31.89,31.89,0,0,1-2,4.92c-.19.39-.39.76-.6,1.13s-.41.74-.6,1.1a3.41,3.41,0,0,0-.18.69c-.07.36-.14.75-.22,1.19s-.13.84-.19,1.23-.1.67-.13.83c.14-.32.34-.72.6-1.19s.54-1,.86-1.51.67-1.07,1-1.6a17.27,17.27,0,0,1,1.15-1.44,6,6,0,0,1,1.2-1,2.22,2.22,0,0,1,1.16-.4,1.07,1.07,0,0,1,.68.22,1.63,1.63,0,0,1,.42.54,2.71,2.71,0,0,1,.21.7,4.32,4.32,0,0,1,.06.7,19.11,19.11,0,0,1-.23,3,20.22,20.22,0,0,0-.22,3c0,.11,0,.23,0,.36a1.28,1.28,0,0,0,.07.35.61.61,0,0,0,.19.26.58.58,0,0,0,.37.11,1.85,1.85,0,0,0,1.07-.41,7.43,7.43,0,0,0,1.09-1,13.37,13.37,0,0,0,1-1.15q.45-.6.69-1l.26-.37a.44.44,0,0,1,.37-.23.3.3,0,0,1,.29.15.84.84,0,0,1,.07.33.46.46,0,0,1-.05.21l-.1.18a11.56,11.56,0,0,1-1,1.51A11.31,11.31,0,0,1,51.07,94a7.42,7.42,0,0,1-1.6,1.18,3.49,3.49,0,0,1-1.69.47.83.83,0,0,1-.75-.39,2.68,2.68,0,0,1-.38-.91,5.51,5.51,0,0,1-.13-1.09c0-.38,0-.68,0-.9a25,25,0,0,1,.13-2.59c.09-.87.17-1.73.25-2.59V87a2.38,2.38,0,0,0,0-.34c0-.16-.09-.23-.22-.23S46.24,86.56,45.93,86.89Zm-2-11.42a11.22,11.22,0,0,0-.67,1.85c-.22.75-.42,1.58-.6,2.48s-.35,1.78-.48,2.62-.25,1.59-.34,2.25-.14,1.13-.15,1.41c.36-.66.74-1.42,1.12-2.28a28.87,28.87,0,0,0,1-2.69q.47-1.39.78-2.76A11.1,11.1,0,0,0,45,75.88v-.27a1.64,1.64,0,0,0,0-.38,2.44,2.44,0,0,0-.08-.34.18.18,0,0,0-.17-.14C44.41,74.75,44.16,75,43.93,75.47Z" />
            <path class="cls-4"
                d="M62.63,91.43q-.21.28-.33.48-.33.45-.81,1a10.18,10.18,0,0,1-1.05,1.13,6,6,0,0,1-1.2.89,2.52,2.52,0,0,1-1.26.36,1.2,1.2,0,0,1-1-.42,3,3,0,0,1-.55-1,5,5,0,0,1-.24-1.22,8,8,0,0,1,0-1.07l-.62.9a8.91,8.91,0,0,1-.82,1,6.35,6.35,0,0,1-1,.87,1.65,1.65,0,0,1-1,.36,1,1,0,0,1-.72-.27,1.73,1.73,0,0,1-.45-.64,3.65,3.65,0,0,1-.21-.82,5.63,5.63,0,0,1-.06-.77,6.17,6.17,0,0,1,.45-2.13,10.54,10.54,0,0,1,1.21-2.27A8,8,0,0,1,54.8,86.1a3.38,3.38,0,0,1,2-.72.8.8,0,0,1,.53.24.7.7,0,0,1,.26.5.21.21,0,0,1-.07.18.71.71,0,0,1-.17.11q-.65.39-1.23.81a7.28,7.28,0,0,0-1.12,1,7.75,7.75,0,0,0-1.49,2.15A5.93,5.93,0,0,0,53,92.89a1.81,1.81,0,0,0,0,.36.24.24,0,0,0,.26.22.91.91,0,0,0,.6-.33,5.38,5.38,0,0,0,.7-.81c.24-.33.47-.7.71-1.11s.45-.8.66-1.18.38-.74.54-1.07.26-.57.34-.73a2.55,2.55,0,0,1,.3-.5.63.63,0,0,1,.52-.22.94.94,0,0,1,.37.07.3.3,0,0,1,.18.31,1.89,1.89,0,0,1-.17.7c-.11.28-.2.52-.26.69a7.83,7.83,0,0,0-.28,1.33A13,13,0,0,0,57.43,92c0,.12,0,.32,0,.57a5.18,5.18,0,0,0,.09.78,2.3,2.3,0,0,0,.22.7.5.5,0,0,0,.45.3,1.66,1.66,0,0,0,1-.39,7.62,7.62,0,0,0,1-.9A13.21,13.21,0,0,0,61.13,92c.28-.37.5-.67.64-.89s.17-.26.27-.4a.47.47,0,0,1,.41-.2c.25,0,.38.15.38.45A1,1,0,0,1,62.63,91.43Z" />
            <path class="cls-4"
                d="M66.2,95.17A5.83,5.83,0,0,1,65.12,95a4.85,4.85,0,0,1-1-.38,1.85,1.85,0,0,1-.72-.63q-.1,1.11-.24,2.61c-.1,1-.22,2-.35,3s-.3,2-.48,3a11.83,11.83,0,0,1-.69,2.4,3.45,3.45,0,0,1-.25.52A3,3,0,0,1,61,106a2,2,0,0,1-.47.4,1.08,1.08,0,0,1-.56.16.9.9,0,0,1-.67-.28,1.72,1.72,0,0,1-.41-.66,3.16,3.16,0,0,1-.19-.82,5,5,0,0,1,0-.72,17.83,17.83,0,0,1,.25-2.89c.17-1,.38-2.07.65-3.13s.55-2.09.87-3.11.63-1.95.92-2.82a2.65,2.65,0,0,0,.09-.62c0-.27,0-.49,0-.65.06-.56.12-1.12.17-1.68s.1-1.12.17-1.68q0-.21,0-.54a2.89,2.89,0,0,1,.09-.61,1.46,1.46,0,0,1,.22-.51.55.55,0,0,1,.47-.21.92.92,0,0,1,.47.14,1.74,1.74,0,0,1,.4.37,2.27,2.27,0,0,1,.26.48,1.47,1.47,0,0,1,.1.47,5.9,5.9,0,0,1-.06.83c0,.28-.08.56-.11.83.21-.29.47-.62.79-1s.67-.74,1-1.09a6.89,6.89,0,0,1,1.18-.89,2.34,2.34,0,0,1,1.19-.36,1.89,1.89,0,0,1,1,.23,1.72,1.72,0,0,1,.6.6,2.77,2.77,0,0,1,.31.85,5.21,5.21,0,0,1,.1,1,7.53,7.53,0,0,1-.16,1.42,10.28,10.28,0,0,1-1.09,3,4.75,4.75,0,0,1-.87,1.14,3.35,3.35,0,0,1-.51.42,1.51,1.51,0,0,1-.61.23,3.51,3.51,0,0,0,.72.07A4.28,4.28,0,0,0,69,94a6.58,6.58,0,0,0,1.46-.82A6.8,6.8,0,0,0,71.69,92a8.42,8.42,0,0,0,.93-1.36,2.78,2.78,0,0,0,.22-.37.37.37,0,0,1,.33-.23c.28,0,.41.15.41.44a.92.92,0,0,1-.06.37,2.91,2.91,0,0,1-.18.32,11.91,11.91,0,0,1-1.16,1.6,8.28,8.28,0,0,1-1.39,1.27,6.33,6.33,0,0,1-1.66.84,6.15,6.15,0,0,1-2,.3C66.89,95.22,66.56,95.2,66.2,95.17ZM61,96.62c-.23.86-.44,1.75-.64,2.67s-.34,1.82-.45,2.7a18.7,18.7,0,0,0-.17,2.25v.24a1.58,1.58,0,0,0,0,.38,2.49,2.49,0,0,0,.08.32.17.17,0,0,0,.17.14c.09,0,.19-.12.29-.37a7,7,0,0,0,.25-.84c.07-.31.13-.61.18-.89s.08-.46.09-.54c.23-1.36.41-2.72.54-4.09s.25-2.74.33-4.11A17.24,17.24,0,0,0,61,96.62Zm2.68-3.44a.76.76,0,0,1,.44.17,1.27,1.27,0,0,0,.73.17,1.9,1.9,0,0,0,1.37-.7,7.1,7.1,0,0,0,1.13-1.64,10.31,10.31,0,0,0,.75-2,6,6,0,0,0,.28-1.59,2.44,2.44,0,0,0-.13-.77.57.57,0,0,0-.59-.41,1.7,1.7,0,0,0-1,.44,8.91,8.91,0,0,0-1.11,1,12.46,12.46,0,0,0-1,1.21,8,8,0,0,0-.65,1,1.72,1.72,0,0,0-.14.55c-.05.29-.1.6-.14.94s-.07.66-.09,1,0,.53-.06.66A.22.22,0,0,1,63.65,93.18Z" />
            <path class="cls-4"
                d="M73.93,92.53a3.57,3.57,0,0,0,.1.72,2,2,0,0,0,.25.63.54.54,0,0,0,.48.26,1.75,1.75,0,0,0,1-.44,8.42,8.42,0,0,0,1.11-1.06,14.25,14.25,0,0,0,1-1.26c.3-.43.52-.78.68-1s.18-.24.28-.39a.48.48,0,0,1,.4-.21c.16,0,.25,0,.27.17a1.37,1.37,0,0,1,0,.36.88.88,0,0,1-.07.28,2.91,2.91,0,0,1-.18.35l-.22.34-.18.25c-.22.32-.51.7-.86,1.14a12.57,12.57,0,0,1-1.17,1.26,8.14,8.14,0,0,1-1.31,1,2.47,2.47,0,0,1-1.32.42,1.51,1.51,0,0,1-1.14-.44,3.27,3.27,0,0,1-.66-1.08,5.53,5.53,0,0,1-.31-1.35,11.68,11.68,0,0,1-.07-1.23,7.67,7.67,0,0,1,.16-1.5,14.57,14.57,0,0,1,.34-1.46,3.44,3.44,0,0,1,.59-1.09,1.43,1.43,0,0,1,1.14-.44c.37,0,.55.17.55.53a2.09,2.09,0,0,1-.08.56c-.06.22-.12.44-.2.67l-.24.7c-.08.23-.15.43-.2.61A10.71,10.71,0,0,0,73.92,92C73.92,92.1,73.92,92.29,73.93,92.53Zm1.56-9.18a1,1,0,0,1,.23.64,1.28,1.28,0,0,1-.34.87,1,1,0,0,1-.81.4A.7.7,0,0,1,74,85a1,1,0,0,1-.22-.63,1.42,1.42,0,0,1,.32-.87,1,1,0,0,1,.81-.4A.76.76,0,0,1,75.49,83.35Z" />
            <path class="cls-4"
                d="M82,85.66c-.37.74-.76,1.44-1.15,2.1a4.13,4.13,0,0,1-.32.49l-.33.47L80,89a1,1,0,0,0-.15.25.48.48,0,0,0,0,.26v.27q0,.36.06,1.11A11.51,11.51,0,0,0,80,92.39a4.9,4.9,0,0,0,.45,1.34.88.88,0,0,0,.78.58,2,2,0,0,0,1.14-.42,7.44,7.44,0,0,0,1.13-1,10.17,10.17,0,0,0,1-1.21c.3-.42.53-.78.71-1.07a2.4,2.4,0,0,1,.27-.36.47.47,0,0,1,.36-.19.3.3,0,0,1,.23.11.33.33,0,0,1,.1.25,1.08,1.08,0,0,1-.12.5c-.08.16-.17.32-.26.48-.23.39-.52.83-.89,1.34a12.69,12.69,0,0,1-1.22,1.42,8.26,8.26,0,0,1-1.42,1.14,2.67,2.67,0,0,1-1.46.47,1.73,1.73,0,0,1-1.1-.38,3.34,3.34,0,0,1-.79-1A7.21,7.21,0,0,1,78.38,93,14,14,0,0,1,78,91.48c-.08-.52-.13-1-.16-1.46s0-.83,0-1.14c0-.78,0-1.57.08-2.36a18.3,18.3,0,0,1,.33-2.34,1.7,1.7,0,0,1-.51.07.5.5,0,0,1-.57-.57.6.6,0,0,1,.42-.63,3.48,3.48,0,0,1,.8-.17c.13-.43.31-1,.55-1.74A17.9,17.9,0,0,1,79.82,79,8.31,8.31,0,0,1,81,77.15a2,2,0,0,1,1.53-.77.78.78,0,0,1,.6.24,1.55,1.55,0,0,1,.32.58,2.71,2.71,0,0,1,.13.7c0,.25,0,.46,0,.64a13.72,13.72,0,0,1-.14,1.9,11.71,11.71,0,0,1-.39,1.87l.82-.12a4.43,4.43,0,0,1,.81-.07c.22,0,.34.1.34.31a.34.34,0,0,1-.09.27,1.06,1.06,0,0,1-.22.18,2.72,2.72,0,0,1-.36.14l-.58.16-.6.16-.43.1A11.67,11.67,0,0,1,82,85.66Zm-2.27.24c0,.64-.08,1.29-.13,1.93.17-.23.37-.51.59-.87s.42-.72.62-1.11.38-.78.54-1.15a8.36,8.36,0,0,0,.36-1,6.63,6.63,0,0,1-.86.13A4.62,4.62,0,0,0,80,84,11,11,0,0,0,79.69,85.9Zm2-7.66A8.84,8.84,0,0,0,81,79.78a15.47,15.47,0,0,0-.56,1.71,9,9,0,0,0-.28,1.2c.32,0,.65-.08,1-.11a5.37,5.37,0,0,0,1-.15,16.17,16.17,0,0,0,.48-2,12.28,12.28,0,0,0,.19-2.09v-.17a1.94,1.94,0,0,0,0-.24.66.66,0,0,0-.08-.21.15.15,0,0,0-.14-.1C82.24,77.58,82,77.8,81.69,78.24Z" />
            <path class="cls-4"
                d="M95.31,91.43c-.13.19-.24.35-.32.48-.22.3-.5.65-.82,1a10.09,10.09,0,0,1-1,1.13,6.65,6.65,0,0,1-1.2.89,2.52,2.52,0,0,1-1.26.36,1.2,1.2,0,0,1-1-.42,3,3,0,0,1-.55-1,5,5,0,0,1-.24-1.22,10.49,10.49,0,0,1,0-1.07l-.61.9a9,9,0,0,1-.83,1,6.3,6.3,0,0,1-.94.87,1.67,1.67,0,0,1-1,.36,1,1,0,0,1-.72-.27,1.7,1.7,0,0,1-.44-.64,3.67,3.67,0,0,1-.22-.82,5.63,5.63,0,0,1-.06-.77,6.21,6.21,0,0,1,.46-2.13,10.12,10.12,0,0,1,1.21-2.27,8,8,0,0,1,1.73-1.79,3.36,3.36,0,0,1,2-.72.82.82,0,0,1,.53.24.7.7,0,0,1,.26.5.21.21,0,0,1-.07.18l-.17.11c-.43.26-.84.53-1.24.81a7.71,7.71,0,0,0-1.11,1,7.54,7.54,0,0,0-1.49,2.15,5.93,5.93,0,0,0-.55,2.55,1.29,1.29,0,0,0,0,.36.24.24,0,0,0,.26.22.91.91,0,0,0,.6-.33,6,6,0,0,0,.7-.81,11.22,11.22,0,0,0,.7-1.11c.24-.4.46-.8.66-1.18s.39-.74.54-1.07l.35-.73a2.55,2.55,0,0,1,.3-.5.62.62,0,0,1,.52-.22.94.94,0,0,1,.37.07.3.3,0,0,1,.18.31,2.11,2.11,0,0,1-.17.7c-.11.28-.2.52-.26.69a7.83,7.83,0,0,0-.28,1.33A13,13,0,0,0,90.12,92c0,.12,0,.32,0,.57a6.87,6.87,0,0,0,.08.78,2.62,2.62,0,0,0,.23.7.49.49,0,0,0,.45.3,1.71,1.71,0,0,0,1-.39,7.62,7.62,0,0,0,1-.9A13.06,13.06,0,0,0,93.81,92c.29-.37.51-.67.65-.89s.17-.26.27-.4a.47.47,0,0,1,.4-.2q.39,0,.39.45A.9.9,0,0,1,95.31,91.43Z" />
            <path class="cls-4"
                d="M97.44,86.94a12.6,12.6,0,0,0,.67,1.39c.26.47.5.93.74,1.41a9.63,9.63,0,0,1,.6,1.45,4.87,4.87,0,0,1,.24,1.51,3.52,3.52,0,0,1-.13,1,2.91,2.91,0,0,1-.42.89,1.75,1.75,0,0,0,1-.37,10.56,10.56,0,0,0,1.15-.94,13.57,13.57,0,0,0,1.06-1.1,9.2,9.2,0,0,0,.69-.9l.29-.4a.5.5,0,0,1,.41-.23.3.3,0,0,1,.29.15.67.67,0,0,1,.07.33.49.49,0,0,1-.08.25,2.26,2.26,0,0,0-.14.26,15,15,0,0,1-1.41,1.89,8.6,8.6,0,0,1-1.62,1.42,7.16,7.16,0,0,1-2,.87,8.71,8.71,0,0,1-2.36.3,8.13,8.13,0,0,1-1.5-.14,2.5,2.5,0,0,1-1.33-.65,1,1,0,0,1-.19-.24.52.52,0,0,1-.08-.29q0-.36.39-.36a.52.52,0,0,1,.23,0l.2.12a2.37,2.37,0,0,0,.82.36A3.49,3.49,0,0,0,96,95a1.81,1.81,0,0,0,1.46-.59,2.29,2.29,0,0,0,.49-1.5,4.63,4.63,0,0,0-.16-1.18,9.85,9.85,0,0,0-.39-1.24c-.17-.42-.34-.82-.54-1.22s-.4-.73-.59-1c-.11.32-.25.68-.42,1.07s-.36.78-.57,1.17a11,11,0,0,1-.66,1.1,5.63,5.63,0,0,1-.7.89l-.28.25a.51.51,0,0,1-.35.13.29.29,0,0,1-.33-.33.63.63,0,0,1,.08-.34,2.51,2.51,0,0,1,.2-.29,14.16,14.16,0,0,0,2.45-4.58,4,4,0,0,1-.21-1.27,3.53,3.53,0,0,1,.12-.84,4.79,4.79,0,0,1,.33-.92,2.91,2.91,0,0,1,.55-.74,1.1,1.1,0,0,1,.77-.31.52.52,0,0,1,.37.13.76.76,0,0,1,.24.34,1.45,1.45,0,0,1,.12.42,1.94,1.94,0,0,1,0,.4,4.72,4.72,0,0,1-.17,1.22C97.71,86.18,97.58,86.57,97.44,86.94Z" />
            <path class="cls-6"
                d="M14.35,164.43q-.21-.1-.18-3.84c0-1.2,0-3-.13-5.44L14,153.47l-.45-.08a1,1,0,0,1-.53-.2q-.18-.16-.09-.3c0-.09.13-.13.29-.13a.8.8,0,0,0,.44-.09,7.11,7.11,0,0,1,2.62-.29,4.2,4.2,0,0,1,1.68.33,3,3,0,0,1,.71.39,6.22,6.22,0,0,1,.61.69A5.42,5.42,0,0,1,20,155a4.84,4.84,0,0,1,.16,1.29,4.49,4.49,0,0,1-.56,2.6,8.17,8.17,0,0,0-.58,1l-.27.46-.24.45-.21.36a3.6,3.6,0,0,1-.22.36l-.22.29a3.84,3.84,0,0,1-.27.29c-.17.14-.57.53-1.2,1.16q-.72.72-1,.72a.29.29,0,0,0-.29.16.7.7,0,0,1-.37.29A.44.44,0,0,1,14.35,164.43Zm2.31-2.37a12.23,12.23,0,0,0,2-2.89A5.42,5.42,0,0,0,19,156.9a6,6,0,0,0-.29-2.29,2.52,2.52,0,0,0-1.14-1.23,2.67,2.67,0,0,0-1.72-.31l-.49.09,0,1.66c0,.28.06.87.13,1.77s.11,1.54.13,1.94,0,.66.05,1.13,0,.9,0,1.26,0,.64,0,.83,0,.34,0,.59,0,.38,0,.39a1.36,1.36,0,0,0,0,.15A5,5,0,0,0,16.66,162.06Z" />
            <path class="cls-6"
                d="M22.12,162a.9.9,0,0,1-.21-.51c0-.2,0-.72,0-1.55l.09-1.76-.31-.1a.48.48,0,0,1-.3-.46c0-.12,0-.18.16-.18a1,1,0,0,1,.27,0c.07,0,.13-.11.16-.37s.06-.62.08-1.09a4.19,4.19,0,0,1,.23-1.32c.15-.39.3-.58.47-.58s.25,0,.27-.09.7-.12,1.81,0l.56,0,.73,0a2.28,2.28,0,0,1,1,.26.39.39,0,0,1,.13.52.6.6,0,0,1-.22.26,1.83,1.83,0,0,1-.58,0,4.11,4.11,0,0,1-.83-.18,3.6,3.6,0,0,0-1.14-.17l-.89-.07,0,.71c0,.08,0,.28-.06.59s-.08.53-.09.67l-.05.78.67-.09c1.2-.13,1.83-.09,1.86.13s-.05.2-.18.2a.44.44,0,0,0-.32.09,2.28,2.28,0,0,1-.83.23,3,3,0,0,1-.93.08c-.12,0-.2,0-.23.19a17.56,17.56,0,0,0-.2,2,4,4,0,0,0,0,.68,1.9,1.9,0,0,0,.06.42c0,.1.06.15.1.15a6.19,6.19,0,0,0,1.55-.33,12.1,12.1,0,0,0,1.45-.51,2,2,0,0,1,.47-.18.91.91,0,0,1,.37.07c.42.17.39.4-.08.67l-.27.15a6.38,6.38,0,0,1-2.82.74,7.75,7.75,0,0,0-1.36.13.82.82,0,0,1-.38,0A.82.82,0,0,1,22.12,162Z" />
            <path class="cls-6"
                d="M35.09,162.26a4.53,4.53,0,0,0-.69-.45,1.44,1.44,0,0,1-.56-.53,6.21,6.21,0,0,1-.42-1.14,5.78,5.78,0,0,1-.2-1c0-.3,0-.86,0-1.68a10.35,10.35,0,0,1,.26-2.52,1.37,1.37,0,0,1,.81-.92.88.88,0,0,1,.94.11.3.3,0,0,1,0,.52,1,1,0,0,0-.22.64,6.4,6.4,0,0,1-.18,1,7.73,7.73,0,0,0,0,2.26,11,11,0,0,0,.2,1.62,2.77,2.77,0,0,0,.5.88,1.08,1.08,0,0,0,.79.29,1.82,1.82,0,0,0,1-.17,2.88,2.88,0,0,0,1.13-2.06,13,13,0,0,0,.1-3.85l-.15-1.36.29-.14c.28-.14.45-.17.52-.09a1.87,1.87,0,0,1,.12.77,26.16,26.16,0,0,1-.22,4.18c-.36,1.79-.85,2.87-1.47,3.26a3.71,3.71,0,0,1-1.42.54A1.37,1.37,0,0,1,35.09,162.26Z" />
            <path class="cls-6"
                d="M43.13,154.34l.29.47a28.38,28.38,0,0,1,1.94,3.63,5.56,5.56,0,0,0,.78,1.4s0,0,0-.11a6.4,6.4,0,0,1,.08-.8c0-.35.07-.61.07-.78s0-.76.06-1.35.06-1,.06-1.34c0-1.4.19-2.1.56-2.1a.29.29,0,0,1,.23.09.38.38,0,0,1,.1.24c0,.11,0,.21,0,.31s0,.21,0,.34,0,.2,0,.25a16.1,16.1,0,0,1-.2,2.62c-.16,1.14-.25,1.9-.27,2.3v2a2.36,2.36,0,0,1-.17.7c-.12.3-.24.46-.37.46a.34.34,0,0,1-.29-.17,2.36,2.36,0,0,1-.2-.47,2.46,2.46,0,0,0-.13-.38c-.32-.66-1-1.93-2.1-3.8,0-.05-.15-.35-.36-.87a6.42,6.42,0,0,0-.36-.86c-.22-.3-.34-.33-.36-.07a3.68,3.68,0,0,0,0,.45v.5a.48.48,0,0,0,0,.22,5.64,5.64,0,0,1,0,1c0,.34,0,.67,0,1a6.15,6.15,0,0,1,0,.86c0,.11,0,.27-.07.48s0,.33,0,.34c0,.47-.09.83-.11,1.08a7.65,7.65,0,0,1-.18,1.27,1.7,1.7,0,0,0-.07.78.64.64,0,0,1-.2.63.19.19,0,0,1-.26,0c-.06-.06-.21-.19-.45-.38a.53.53,0,0,1-.23-.51,4,4,0,0,0,.12-.65A10,10,0,0,1,41.2,162a12.21,12.21,0,0,0,.18-1.45c0-.17,0-.47.07-.89s.06-.68.07-.78c0-.51.07-1.23.07-2.16a18.36,18.36,0,0,0-.09-1.94,1.13,1.13,0,0,0-.27-.74,2.17,2.17,0,0,1-.36-.57,2.62,2.62,0,0,1-.25-.65.22.22,0,0,1,.1-.22,1.71,1.71,0,0,1,.53-.19l.67-.17.27.33a1,1,0,0,1,.31.52.47.47,0,0,0,.14.37c.13.09.19.18.19.27A1.33,1.33,0,0,0,43.13,154.34Z" />
            <path class="cls-6"
                d="M13.47,188.94a3.07,3.07,0,0,1,0-.49c0-.3,0-.71,0-1.24s0-1.06,0-1.61a70,70,0,0,0,0-7.59c0-.26-.15-.38-.35-.38h-1a.35.35,0,0,1-.25-.07s0-.11,0-.19a1.09,1.09,0,0,1,.23-.3q.81-.75,3.27-.75a9.2,9.2,0,0,1,1.43.07,4.43,4.43,0,0,1,1,.5,2.32,2.32,0,0,1,1,1.23,3.12,3.12,0,0,1,.11,1.69,3.8,3.8,0,0,1-.83,1.5,2.61,2.61,0,0,1-1.17.94.89.89,0,0,0-.46.24,1.35,1.35,0,0,1-.78.21h-.58l-.06.54a21.1,21.1,0,0,0,0,2.68c0,1,0,1.57,0,1.82s-.06.39-.15.44a.39.39,0,0,0-.2.35c0,.18-.18.33-.55.46S13.54,189.1,13.47,188.94Zm2.7-7.07a3.55,3.55,0,0,0,1.73-1.66,2,2,0,0,0-.06-1.91,2,2,0,0,0-.64-.67,2.07,2.07,0,0,0-1.07-.39c-.65-.07-1,0-1.17.13a.08.08,0,0,0,0,.11,19.55,19.55,0,0,1,.13,2.2c0,.41,0,.77,0,1.09s0,.57,0,.78,0,.31,0,.32a.42.42,0,0,0,.37.16A1.79,1.79,0,0,0,16.17,181.87Z" />
            <path class="cls-6"
                d="M25.33,186.26a4.83,4.83,0,0,1-.24-.77c-.11-.46-.24-.93-.4-1.42l-.24-.75-1.52.07c-.7,0-1.15.07-1.34.1a.77.77,0,0,0-.43.22.55.55,0,0,0-.24.46c0,.15,0,.25-.09.27a2,2,0,0,0-.42.7,2.52,2.52,0,0,1-.9,1.16c-.11,0-.17,0-.17-.17a2.16,2.16,0,0,1,0-.29,5.07,5.07,0,0,1,.2-.57c.6-1.28.85-2,.74-2.08a.54.54,0,0,1-.19-.37c0-.12,0-.19.07-.23a1,1,0,0,1,.38,0c.29,0,.44-.08.45-.22a4.78,4.78,0,0,1,.5-1.1,6,6,0,0,0,.48-1,.35.35,0,0,1,.13-.27,2,2,0,0,0,.35-.77,3.39,3.39,0,0,1,.42-1c.15-.21.3-.31.46-.29a1.1,1.1,0,0,1,.67.34.92.92,0,0,1,.37.59,3.45,3.45,0,0,0,.34,1.07c.15.34.34.82.55,1.43a15.93,15.93,0,0,0,.84,1.89,6.88,6.88,0,0,1,.38,1.11,4.37,4.37,0,0,1,.21,1.1.65.65,0,0,1-.08.35.83.83,0,0,1-.36.2,5.07,5.07,0,0,1-.75.26C25.44,186.32,25.37,186.31,25.33,186.26ZM24,182.46a3.37,3.37,0,0,0-.29-1.31c-.24-.76-.41-1.13-.49-1.12s-.11.09-.15.28a.51.51,0,0,1-.24.38.3.3,0,0,0-.17.3.77.77,0,0,1-.18.53.65.65,0,0,0-.22.4.53.53,0,0,1-.18.32c-.09.09-.13.16-.12.19s0,.07.12.12a2.34,2.34,0,0,0,1,.07C23.6,182.6,23.91,182.54,24,182.46Z" />
            <path class="cls-6"
                d="M29.48,188.92a1.53,1.53,0,0,0-.59-.2l-.35,0,0-2q.09-8.72,0-9.09c0-.1-.09-.14-.17-.13a1.29,1.29,0,0,1-.42,0,1.68,1.68,0,0,1-.4-.15q-.16-.1-.15-.18c.1-.31.79-.46,2.08-.46a7.61,7.61,0,0,1,2.08.23,2.75,2.75,0,0,1,1.31.84,2.09,2.09,0,0,1,.44.56,2.32,2.32,0,0,1,0,.76,3,3,0,0,1-.11.72,1.54,1.54,0,0,1-.35.51,10.27,10.27,0,0,1-1.69,1.64l-.31.22.57.73.63.72a5.89,5.89,0,0,0,.93.9,3.85,3.85,0,0,0,1.64.71,3.5,3.5,0,0,1,.81.13c.19.12.14.33-.17.61a1.71,1.71,0,0,1-1.12.44,1.86,1.86,0,0,1-1.14-.55,19.44,19.44,0,0,1-2-2.22l-.5-.59c-.16-.19-.29-.32-.38-.42s-.16-.13-.17-.12a22.27,22.27,0,0,0-.09,3.15,16.44,16.44,0,0,1-.15,3.3C29.74,189,29.64,189,29.48,188.92Zm1.4-7.75a6.7,6.7,0,0,0,.66-.44,4.36,4.36,0,0,0,.53-.59,1.53,1.53,0,0,0,.4-.81,1.21,1.21,0,0,0-.11-.68A1.42,1.42,0,0,0,32,178a2.4,2.4,0,0,0-.86-.46c-.56-.21-.9-.18-1,.07a7.57,7.57,0,0,0-.13,2.28,8.8,8.8,0,0,0,.11,1.51q.11.12.57-.15Z" />
            <path class="cls-6"
                d="M40.66,186.26a4.83,4.83,0,0,1-.24-.77c-.11-.46-.24-.93-.4-1.42l-.24-.75-1.52.07c-.7,0-1.15.07-1.34.1a.77.77,0,0,0-.43.22.55.55,0,0,0-.24.46c0,.15,0,.25-.09.27a2,2,0,0,0-.42.7,2.52,2.52,0,0,1-.9,1.16c-.11,0-.17,0-.17-.17a2.16,2.16,0,0,1,0-.29,5.07,5.07,0,0,1,.2-.57c.6-1.28.85-2,.74-2.08a.54.54,0,0,1-.19-.37c0-.12,0-.19.07-.23a1,1,0,0,1,.38,0c.29,0,.44-.08.45-.22a4.78,4.78,0,0,1,.5-1.1,6,6,0,0,0,.48-1,.35.35,0,0,1,.13-.27,2,2,0,0,0,.35-.77,3.39,3.39,0,0,1,.42-1c.15-.21.3-.31.46-.29a1.1,1.1,0,0,1,.67.34.92.92,0,0,1,.37.59,3.45,3.45,0,0,0,.34,1.07c.15.34.34.82.55,1.43a15.93,15.93,0,0,0,.84,1.89,6.88,6.88,0,0,1,.38,1.11,4.37,4.37,0,0,1,.21,1.1.65.65,0,0,1-.08.35.83.83,0,0,1-.36.2,5.07,5.07,0,0,1-.75.26C40.77,186.32,40.7,186.31,40.66,186.26Zm-1.37-3.8a3.75,3.75,0,0,0-.3-1.31c-.24-.76-.41-1.13-.49-1.12s-.11.09-.15.28a.51.51,0,0,1-.24.38.3.3,0,0,0-.17.3.77.77,0,0,1-.18.53.65.65,0,0,0-.22.4.53.53,0,0,1-.18.32c-.09.09-.13.16-.12.19s0,.07.12.12a2.34,2.34,0,0,0,1,.07C38.93,182.6,39.24,182.54,39.29,182.46Z" />
            <line class="cls-7" x1="59.42" y1="165.34" x2="118.46" y2="165.34" />
            <line class="cls-7" x1="48.13" y1="187.34" x2="118.46" y2="187.34" />
            <path class="cls-3"
                d="M73.77,157.42a6.37,6.37,0,0,1,.42,1.08,9.89,9.89,0,0,1,.25,1.15,8.73,8.73,0,0,1,.1,1.06,10.65,10.65,0,0,1-.08,1.72,7.23,7.23,0,0,1-.45,1.86,4.57,4.57,0,0,1-1,1.51,2.24,2.24,0,0,1-1.56.66,1,1,0,0,1-.73-.26,2.31,2.31,0,0,1-.51-.74,5,5,0,0,1-.33-1,10.73,10.73,0,0,1-.19-1.11c0-.36-.09-.71-.11-1s0-.58,0-.77a44.13,44.13,0,0,1,.42-8.17,44.79,44.79,0,0,1,1.93-7.94l.18-.44a1.52,1.52,0,0,1,.24-.41,2.8,2.8,0,0,1,.3-.27,2.65,2.65,0,0,1,.4-.24,3.93,3.93,0,0,1,.43-.18,1.66,1.66,0,0,1,.4-.08.44.44,0,0,1,.4.17.69.69,0,0,1,.12.41,1.09,1.09,0,0,1,0,.37,2,2,0,0,1-.12.34c-.15.39-.32.78-.5,1.17s-.34.78-.5,1.17a40.86,40.86,0,0,0-1.32,4,29,29,0,0,0-.81,4.15,2.87,2.87,0,0,0,.42.08l.55,0h1l.5,0,.47-.08.31-.09.31,0a.91.91,0,0,1,.23,0,.21.21,0,0,1,.12.2.66.66,0,0,1-.19.56,1.06,1.06,0,0,1-.5.27,3.22,3.22,0,0,1-.64.07l-.6,0A2.5,2.5,0,0,1,73.77,157.42Zm-3.14,2.47a24.26,24.26,0,0,0,0,2.83c0,.14,0,.38,0,.7a9.13,9.13,0,0,0,.15,1,4.13,4.13,0,0,0,.3.9c.12.25.28.38.46.37a.85.85,0,0,0,.63-.35,3,3,0,0,0,.45-.78,6,6,0,0,0,.29-.91,5.25,5.25,0,0,0,.14-.73,7,7,0,0,0,.08-.79c0-.26,0-.52,0-.79v-.06a7,7,0,0,0-.17-1.24,6,6,0,0,0-.39-1.2,4.49,4.49,0,0,0-.68-1,2.87,2.87,0,0,0-1-.74C70.78,158,70.7,159,70.63,159.89Z" />
            <path class="cls-3"
                d="M77.14,161A2.19,2.19,0,0,1,76,159.62a4.18,4.18,0,0,1-.16-1A6.18,6.18,0,0,1,76,157a8.93,8.93,0,0,1,.66-1.88,5.79,5.79,0,0,1,1.09-1.56,2.17,2.17,0,0,1,1.45-.68,1,1,0,0,1,.84.31,1.27,1.27,0,0,1,.32.85,2.38,2.38,0,0,1-.26,1.12,6.45,6.45,0,0,1-.73,1.22,7.5,7.5,0,0,1-1,1,3.43,3.43,0,0,1-1,.64,3.74,3.74,0,0,0-.07.85,1.74,1.74,0,0,0,.34,1.06,1.19,1.19,0,0,0,1,.35,3,3,0,0,0,1.19-.3,4.84,4.84,0,0,0,1-.68,5.35,5.35,0,0,0,.84-.93,6.87,6.87,0,0,0,.66-1,4.1,4.1,0,0,1,.23-.34.43.43,0,0,1,.35-.2.32.32,0,0,1,.19,0,.19.19,0,0,1,.1.16.77.77,0,0,1,0,.32,1,1,0,0,1-.13.29,6.9,6.9,0,0,1-.87,1.33,7,7,0,0,1-1.17,1.14,6,6,0,0,1-1.39.8,4.58,4.58,0,0,1-1.56.33A2.07,2.07,0,0,1,77.14,161Zm1.44-6.83a6.59,6.59,0,0,0-.52,1,10.7,10.7,0,0,0-.39,1.17,7,7,0,0,0-.19.84,5.12,5.12,0,0,0,.68-.56,4.59,4.59,0,0,0,.67-.78,5.89,5.89,0,0,0,.51-.86,1.93,1.93,0,0,0,.18-.84.68.68,0,0,0-.08-.31.26.26,0,0,0-.28-.14C79,153.76,78.77,153.92,78.58,154.21Z" />
            <path class="cls-3"
                d="M82.26,156.83a6.52,6.52,0,0,1,.66-1.74,4.84,4.84,0,0,1,1.12-1.4,2.46,2.46,0,0,1,1.56-.62,1.61,1.61,0,0,1,.93.22,1.93,1.93,0,0,1,.6.64,3,3,0,0,1,.33.87,4.43,4.43,0,0,1,.13.93,7.56,7.56,0,0,1-.06,1.34,7.08,7.08,0,0,1-.33,1.3,5.81,5.81,0,0,1-.61,1.19,4.08,4.08,0,0,1-.94,1,4.68,4.68,0,0,1-.73.4,2.27,2.27,0,0,1-.81.18,1.52,1.52,0,0,1-.92-.21,1.9,1.9,0,0,1-.62-.61,2.76,2.76,0,0,1-.35-.84,4.37,4.37,0,0,1-.14-.92A6.58,6.58,0,0,1,82.26,156.83Zm2.42-1.94A4.07,4.07,0,0,0,84,156a6.41,6.41,0,0,0-.39,1.34,5.66,5.66,0,0,0-.1,1.14c0,.16,0,.34.06.53a2,2,0,0,0,.17.52,1.16,1.16,0,0,0,.33.4.74.74,0,0,0,.51.15,1.15,1.15,0,0,0,.48-.13,2,2,0,0,0,.42-.29,2.9,2.9,0,0,0,.62-.73,4.18,4.18,0,0,0,.4-.89,4.46,4.46,0,0,0,.22-1,7.79,7.79,0,0,0,0-.95,4.49,4.49,0,0,0-.07-.56,1.79,1.79,0,0,0-.18-.58,1.41,1.41,0,0,0-.34-.45.71.71,0,0,0-.52-.17A1.35,1.35,0,0,0,84.68,154.89Z" />
            <path class="cls-5"
                d="M54.05,174.61a1.44,1.44,0,0,1,1.07.3,1.33,1.33,0,0,1,.45,1,1.43,1.43,0,0,1,0,.29.2.2,0,0,1-.22.16.21.21,0,0,1-.21-.16,3.44,3.44,0,0,0-.19-.39,1.14,1.14,0,0,0-.3-.39.78.78,0,0,0-.58-.14,1.29,1.29,0,0,0-.71.28,2.65,2.65,0,0,0-.59.65,5.36,5.36,0,0,0-.48.89c-.14.32-.26.65-.37,1a7.89,7.89,0,0,0-.26.94c-.07.29-.12.54-.16.74a3.66,3.66,0,0,1,.63-.15c.28-.05.58-.1.91-.14l.93-.11.69-.06h.46s.08,0,.08,0a.42.42,0,0,1-.11.32.55.55,0,0,1-.29.19,1.25,1.25,0,0,0-.33.06l-.57.15-.71.21-.73.23-.63.19-.4.13a2.37,2.37,0,0,0,0,.46,6.27,6.27,0,0,0,.15,1,3.88,3.88,0,0,0,.36,1,2.19,2.19,0,0,0,.64.71,1.5,1.5,0,0,0,1,.23,2.22,2.22,0,0,0,.72-.16,3.59,3.59,0,0,0,.64-.34,3.64,3.64,0,0,0,.56-.48,4,4,0,0,0,.45-.57,2.39,2.39,0,0,0,.21-.34,3.72,3.72,0,0,1,.19-.34l.09-.11a.26.26,0,0,1,.14-.05.21.21,0,0,1,.16.06.19.19,0,0,1,.07.16.65.65,0,0,1-.07.31,3.08,3.08,0,0,1-.16.28,6.1,6.1,0,0,1-.67.89,5,5,0,0,1-.84.75,5.1,5.1,0,0,1-1,.54A3.4,3.4,0,0,1,53,185a2.22,2.22,0,0,1-1.26-.25,2.67,2.67,0,0,1-.86-.81,3.91,3.91,0,0,1-.5-1.14,6.17,6.17,0,0,1-.22-1.26v-.17c0-.06,0-.12,0-.18l-.28,0a1.06,1.06,0,0,1-.31,0,.59.59,0,0,1-.24-.11.38.38,0,0,1-.12-.27.39.39,0,0,1,.09-.3.83.83,0,0,1,.26-.19,2.19,2.19,0,0,1,.33-.12l.3-.08a9.87,9.87,0,0,1,.24-1.08,10.94,10.94,0,0,1,.4-1.18,9.82,9.82,0,0,1,.57-1.18,5.52,5.52,0,0,1,.73-1,3.7,3.7,0,0,1,.9-.74A2.52,2.52,0,0,1,54.05,174.61Z" />
            <path class="cls-5"
                d="M57.06,184.41a2.15,2.15,0,0,1-.48-.58,3.72,3.72,0,0,1-.34-.81,9.28,9.28,0,0,1-.22-.91c-.05-.3-.09-.59-.12-.86s-.06-.48-.07-.64a17.5,17.5,0,0,1,0-2.71,11.46,11.46,0,0,1,.59-2.64c.06-.16.15-.35.25-.58a6.11,6.11,0,0,1,.38-.65,2.63,2.63,0,0,1,.49-.55,1,1,0,0,1,.55-.25.63.63,0,0,1,.39.09.72.72,0,0,1,.25.27,2,2,0,0,1,.15.37,2,2,0,0,1,.06.39,6.79,6.79,0,0,1,0,1.33,12.35,12.35,0,0,1-.28,1.45c-.12.49-.27,1-.43,1.43s-.33.87-.5,1.24a5.12,5.12,0,0,1-.27.52l-.29.52a1.3,1.3,0,0,1-.11.19.64.64,0,0,0-.08.2,1.09,1.09,0,0,0,0,.28c0,.12,0,.22,0,.3a5.22,5.22,0,0,0,.07.53,3.2,3.2,0,0,0,.16.68,2,2,0,0,0,.28.56.5.5,0,0,0,.45.22.91.91,0,0,0,.49-.21,3.06,3.06,0,0,0,.5-.46,5.57,5.57,0,0,0,.43-.56l.32-.47.15-.28a1.51,1.51,0,0,1,.15-.28.71.71,0,0,1,.1-.14.34.34,0,0,1,.16-.06c.07,0,.12,0,.14.06a.3.3,0,0,1,0,.16.53.53,0,0,1,0,.25,2.42,2.42,0,0,1-.12.23c-.11.22-.26.47-.44.76a4.79,4.79,0,0,1-.6.82,4.48,4.48,0,0,1-.72.67,1.51,1.51,0,0,1-.79.31A.93.93,0,0,1,57.06,184.41Zm.77-10.3a2.74,2.74,0,0,0-.28.54,5,5,0,0,0-.19.63q-.07.32-.12.48c-.14.6-.26,1.25-.37,1.94a8.89,8.89,0,0,0-.1,2c0,.07,0,.13,0,.19a1.37,1.37,0,0,0,0,.19c.19-.37.38-.8.59-1.29s.39-1,.55-1.51a12.8,12.8,0,0,0,.38-1.54,5.26,5.26,0,0,0,.1-1.39v-.12l0-.16a.61.61,0,0,0-.07-.14.17.17,0,0,0-.12-.05A.52.52,0,0,0,57.83,174.11Z" />
            <path class="cls-5"
                d="M68.29,181.54l-.16.27c-.11.18-.24.38-.4.61a6.32,6.32,0,0,1-.52.64,3.42,3.42,0,0,1-.62.53,1.47,1.47,0,0,1-.67.24.65.65,0,0,1-.53-.2,1.45,1.45,0,0,1-.33-.52,2.52,2.52,0,0,1-.18-.65,4.69,4.69,0,0,1,0-.58l-.3.51a5.68,5.68,0,0,1-.41.59,3.27,3.27,0,0,1-.48.5.9.9,0,0,1-.51.23.59.59,0,0,1-.4-.11.88.88,0,0,1-.26-.34,1.57,1.57,0,0,1-.15-.43,4.07,4.07,0,0,1-.06-.41,3.24,3.24,0,0,1,.17-1.17A5,5,0,0,1,63,180a4.2,4.2,0,0,1,.87-1,1.87,1.87,0,0,1,1.07-.47.5.5,0,0,1,.3.12.35.35,0,0,1,.16.26.13.13,0,0,1,0,.1l-.08.06c-.23.16-.44.32-.64.48a5.11,5.11,0,0,0-.57.57,4.3,4.3,0,0,0-.73,1.21,3.14,3.14,0,0,0-.2,1.4.54.54,0,0,0,0,.2.13.13,0,0,0,.15.1.48.48,0,0,0,.31-.19,4.1,4.1,0,0,0,.35-.47c.11-.19.23-.39.34-.62l.31-.67c.1-.21.19-.41.26-.59s.12-.32.16-.41a1,1,0,0,1,.14-.28.33.33,0,0,1,.27-.14.5.5,0,0,1,.21,0,.17.17,0,0,1,.1.17,1,1,0,0,1-.06.38l-.12.38a4.28,4.28,0,0,0-.1.73c0,.26,0,.5,0,.73,0,.07,0,.17,0,.31a3.07,3.07,0,0,0,.07.42,1.5,1.5,0,0,0,.15.36.26.26,0,0,0,.25.15.91.91,0,0,0,.51-.24,4.36,4.36,0,0,0,.52-.53,5.5,5.5,0,0,0,.47-.61c.14-.21.25-.37.32-.5a2.53,2.53,0,0,1,.13-.22.25.25,0,0,1,.21-.13c.14,0,.21.07.22.23A.42.42,0,0,1,68.29,181.54Z" />
            <path class="cls-5"
                d="M71.19,182.88a4,4,0,0,1-.19-.63c0-.25-.09-.53-.13-.83s-.07-.59-.08-.88,0-.53-.05-.75,0-.38,0-.47a1.15,1.15,0,0,0,0-.16.11.11,0,0,0-.12-.1c-.09,0-.2.09-.35.26a6,6,0,0,0-.45.65c-.16.27-.32.55-.49.87s-.32.62-.46.92-.27.56-.38.79a5.14,5.14,0,0,0-.21.51,1.12,1.12,0,0,1-.16.28.4.4,0,0,1-.28.14.22.22,0,0,1-.2-.07.3.3,0,0,1-.08-.2,4.79,4.79,0,0,1,0-.61c0-.28,0-.6.08-.95s.07-.72.12-1.11.11-.75.16-1.1.12-.65.18-.92a3,3,0,0,1,.16-.55.88.88,0,0,1,.41-.42,1.38,1.38,0,0,1,.56-.17.26.26,0,0,1,.22.07.44.44,0,0,1,.08.22,1.39,1.39,0,0,1,0,.32,3.06,3.06,0,0,1-.1.38c0,.12-.09.25-.13.38s-.08.23-.11.32a5.72,5.72,0,0,0-.19.74c0,.25-.07.51-.1.76.09-.14.2-.35.35-.61a9.06,9.06,0,0,1,.49-.77,4.23,4.23,0,0,1,.56-.67,1,1,0,0,1,.55-.31.39.39,0,0,1,.3.1.91.91,0,0,1,.18.27,2,2,0,0,1,.1.35c0,.12,0,.22,0,.31,0,.25,0,.5,0,.75s0,.5,0,.76,0,.26,0,.41a1.77,1.77,0,0,0,.08.4l0,.05s0,0,0,0a.28.28,0,0,0,.09-.11l.07-.14c.14-.27.29-.53.45-.79l.48-.78c.09-.16.2-.34.33-.55a7.11,7.11,0,0,1,.41-.6,2.86,2.86,0,0,1,.48-.5,1,1,0,0,1,.57-.23.65.65,0,0,1,.37.08.78.78,0,0,1,.27.24,1.26,1.26,0,0,1,.16.33,1.72,1.72,0,0,1,.07.37,10.86,10.86,0,0,1,0,1.51c0,.5,0,1,0,1.5,0,.06,0,.13,0,.21a.77.77,0,0,0,.06.23.39.39,0,0,0,.11.17.28.28,0,0,0,.21.07,1,1,0,0,0,.49-.21,4.29,4.29,0,0,0,.52-.46,6,6,0,0,0,.47-.55,5.22,5.22,0,0,0,.34-.46l.15-.22a.3.3,0,0,1,.23-.14.15.15,0,0,1,.15.08.61.61,0,0,1,0,.18.27.27,0,0,1,0,.14l-.08.13a7.2,7.2,0,0,1-.47.64,6.32,6.32,0,0,1-.66.72,5,5,0,0,1-.74.59,1.61,1.61,0,0,1-.71.27.72.72,0,0,1-.52-.15,1.17,1.17,0,0,1-.29-.44,2.42,2.42,0,0,1-.15-.56c0-.2-.05-.38-.06-.53,0-.39,0-.78,0-1.17a9.49,9.49,0,0,0,0-1.19.82.82,0,0,0,0-.14.85.85,0,0,0,0-.17.69.69,0,0,0-.07-.15.14.14,0,0,0-.13-.05c-.11,0-.23.09-.38.26a6,6,0,0,0-.45.65c-.16.26-.33.56-.49.88s-.32.62-.47.92l-.38.8c-.11.24-.2.41-.26.52a.83.83,0,0,1-.13.18.32.32,0,0,1-.2.07C71.34,183.11,71.26,183,71.19,182.88Z" />
            <path class="cls-5"
                d="M77.76,180.17a4.48,4.48,0,0,1,.4-1.15,3.44,3.44,0,0,1,.7-.93,1.61,1.61,0,0,1,1-.42.94.94,0,0,1,.61.13,1.27,1.27,0,0,1,.4.4,2,2,0,0,1,.23.56,4.17,4.17,0,0,1,.1.6,5.06,5.06,0,0,1,0,.87,4,4,0,0,1-.19.85,3.83,3.83,0,0,1-.38.79,2.56,2.56,0,0,1-.6.63,2.35,2.35,0,0,1-.46.28,1.59,1.59,0,0,1-.52.13,1.17,1.17,0,0,1-.61-.12,1.38,1.38,0,0,1-.41-.39,2.05,2.05,0,0,1-.24-.54,3.21,3.21,0,0,1-.11-.59A4.33,4.33,0,0,1,77.76,180.17Zm1.54-1.3a2.52,2.52,0,0,0-.41.74,4,4,0,0,0-.23.87,3.51,3.51,0,0,0,0,.75,2.15,2.15,0,0,0,0,.34.92.92,0,0,0,.12.34.75.75,0,0,0,.22.25.46.46,0,0,0,.33.09.8.8,0,0,0,.31-.09,1.35,1.35,0,0,0,.27-.2,1.79,1.79,0,0,0,.39-.48,2.55,2.55,0,0,0,.25-.59,3.24,3.24,0,0,0,.12-.62,4.34,4.34,0,0,0,0-.62,2.58,2.58,0,0,0-.05-.36,1.42,1.42,0,0,0-.13-.38,1.09,1.09,0,0,0-.23-.29.48.48,0,0,0-.34-.1A.87.87,0,0,0,79.3,178.87Z" />
            <path class="cls-5"
                d="M83.62,179.07a1.61,1.61,0,0,0-.55-.25c0,.2-.12.4-.18.61s-.15.43-.24.65a5.76,5.76,0,0,1-.3.61,3,3,0,0,1-.37.54l-.14.14a.46.46,0,0,1-.19.08c-.12,0-.18,0-.18-.16a.25.25,0,0,1,0-.15,1,1,0,0,1,.07-.15c.23-.38.44-.76.64-1.16a3.17,3.17,0,0,0,.32-1.26,1.44,1.44,0,0,1-.29-.49,2.3,2.3,0,0,1-.12-.58,3.19,3.19,0,0,1,0-.4,2.68,2.68,0,0,1,.11-.49,2.06,2.06,0,0,1,.21-.42.44.44,0,0,1,.33-.19.24.24,0,0,1,.23.11,1.06,1.06,0,0,1,.15.28,1.68,1.68,0,0,1,.09.32c0,.11,0,.21,0,.27q0,.32,0,.63a1.09,1.09,0,0,0,.44.35l.53.29a2,2,0,0,1,.47.4,1.19,1.19,0,0,1,.22.67,2.31,2.31,0,0,1,0,.51c0,.31-.09.62-.12.92a4.82,4.82,0,0,0,0,.93,1.25,1.25,0,0,0,0,.3.19.19,0,0,0,.22.16.87.87,0,0,0,.5-.25,4.12,4.12,0,0,0,.54-.56c.18-.21.35-.43.5-.64a5.1,5.1,0,0,0,.33-.51l.13-.21a.27.27,0,0,1,.2-.13c.07,0,.13,0,.15.08a.53.53,0,0,1,0,.19.32.32,0,0,1,0,.14l-.06.13a5.58,5.58,0,0,1-.42.66c-.19.26-.39.52-.61.77a4.61,4.61,0,0,1-.7.64,1.3,1.3,0,0,1-.68.3.69.69,0,0,1-.52-.16,1.31,1.31,0,0,1-.3-.46,2.59,2.59,0,0,1-.15-.58c0-.21,0-.39-.06-.55s0-.48,0-.71,0-.47,0-.71A.62.62,0,0,0,83.62,179.07Z" />
            <path class="cls-5"
                d="M92.31,180.5a7.93,7.93,0,0,1-.58.58,4,4,0,0,1-.63.47,1.29,1.29,0,0,1-.61.23.54.54,0,0,1-.37-.11,1.08,1.08,0,0,1-.26-.3,1.68,1.68,0,0,1-.16-.39,1.84,1.84,0,0,1-.07-.37,3.64,3.64,0,0,1,.23-1.51,3.48,3.48,0,0,1,.82-1.28,2.9,2.9,0,0,1,.53-.38,1.43,1.43,0,0,1,.62-.21.84.84,0,0,1,.68.26,8.28,8.28,0,0,1,0-.88,10.11,10.11,0,0,1,.09-1.06c0-.38.11-.76.19-1.15a8.11,8.11,0,0,1,.65-2.08,2.42,2.42,0,0,1,.46-.71,2.89,2.89,0,0,1,.31-.28.64.64,0,0,1,.38-.16.51.51,0,0,1,.38.13,1.1,1.1,0,0,1,.25.37,2.13,2.13,0,0,1,.13.45,2.28,2.28,0,0,1,0,.4,6.46,6.46,0,0,1-.11,1.58c-.11.59-.25,1.2-.43,1.82s-.38,1.21-.6,1.79-.42,1.08-.6,1.5c0,.09,0,.25,0,.47a5.5,5.5,0,0,0,.11.67,2.27,2.27,0,0,0,.21.59q.14.26.33.24a1.06,1.06,0,0,0,.57-.23,4.23,4.23,0,0,0,.53-.51,7.17,7.17,0,0,0,.45-.63,4.41,4.41,0,0,0,.32-.55l.15-.27c.07-.11.14-.17.23-.17a.12.12,0,0,1,.15.08.61.61,0,0,1,0,.18.65.65,0,0,1-.07.29l-.14.27c-.13.21-.27.45-.43.7a4.21,4.21,0,0,1-.55.71,3.17,3.17,0,0,1-.66.56,1.61,1.61,0,0,1-.77.26.79.79,0,0,1-.58-.18,1.65,1.65,0,0,1-.41-.49,3.29,3.29,0,0,1-.29-.63c-.07-.22-.12-.41-.16-.58Zm-.64-2.1a3.2,3.2,0,0,0-.69.73,3.66,3.66,0,0,0-.46.93,2.46,2.46,0,0,0-.14.89,1.43,1.43,0,0,0,0,.16.09.09,0,0,0,.12.09,1.09,1.09,0,0,0,.53-.27,6.87,6.87,0,0,0,.64-.59,8.38,8.38,0,0,0,.57-.66,3.37,3.37,0,0,0,.34-.51c0-.19,0-.37-.07-.55l0-.56A1.47,1.47,0,0,0,91.67,178.4Zm1.83-.26c.15-.38.31-.81.48-1.31s.31-1,.45-1.53.24-1,.32-1.55a6.62,6.62,0,0,0,.08-1.36v-.07a.51.51,0,0,0,0-.13.28.28,0,0,0,0-.11.08.08,0,0,0-.08,0,.14.14,0,0,0-.11.06l-.09.1a2.2,2.2,0,0,0-.29.63,8.79,8.79,0,0,0-.26,1c-.07.37-.14.76-.2,1.18s-.11.81-.14,1.19-.07.74-.08,1.05a6.88,6.88,0,0,0,0,.77Z" />
            <path class="cls-5"
                d="M96.69,181.5a1.44,1.44,0,0,1-.48-.36,1.56,1.56,0,0,1-.29-.54,3.5,3.5,0,0,1-.12-.66,4,4,0,0,1,.1-1.08,5.05,5.05,0,0,1,.4-1.23,3.55,3.55,0,0,1,.68-1,1.4,1.4,0,0,1,.92-.47.7.7,0,0,1,.56.19.83.83,0,0,1,.22.55,1.49,1.49,0,0,1-.15.73,4,4,0,0,1-.46.8,3.79,3.79,0,0,1-.61.7,2,2,0,0,1-.62.44,2.64,2.64,0,0,0,0,.55,1.13,1.13,0,0,0,.24.68.79.79,0,0,0,.67.21,2,2,0,0,0,.77-.21,3.25,3.25,0,0,0,.64-.46,4,4,0,0,0,.54-.62c.15-.23.29-.45.41-.68a2,2,0,0,1,.14-.23.29.29,0,0,1,.22-.13.28.28,0,0,1,.13,0,.11.11,0,0,1,.06.1.66.66,0,0,1,0,.21.87.87,0,0,1-.08.19,4.53,4.53,0,0,1-.54.88,4.84,4.84,0,0,1-.74.76,3.85,3.85,0,0,1-.89.54,2.93,2.93,0,0,1-1,.24A1.29,1.29,0,0,1,96.69,181.5Zm.82-4.46a3.58,3.58,0,0,0-.32.68,5.56,5.56,0,0,0-.24.76,4.46,4.46,0,0,0-.1.55,4.12,4.12,0,0,0,.43-.37,4.33,4.33,0,0,0,.42-.52,2.63,2.63,0,0,0,.31-.57,1.23,1.23,0,0,0,.11-.55.76.76,0,0,0-.06-.2.18.18,0,0,0-.18-.08A.51.51,0,0,0,97.51,177Z" />
            <path class="cls-5"
                d="M106.25,180.53a3.87,3.87,0,0,1-.19-.62c0-.25-.09-.53-.13-.83s-.06-.6-.08-.88,0-.54,0-.76,0-.38,0-.46a1.28,1.28,0,0,0,0-.17.11.11,0,0,0-.12-.1c-.09,0-.2.1-.34.27a3.65,3.65,0,0,0-.45.65c-.17.26-.33.55-.5.86s-.32.62-.46.92-.27.56-.38.79-.18.41-.21.51a1.12,1.12,0,0,1-.16.28.34.34,0,0,1-.28.14.2.2,0,0,1-.2-.07.27.27,0,0,1-.08-.19,4.94,4.94,0,0,1,0-.62c0-.28,0-.59.08-.95s.07-.72.12-1.11.11-.75.17-1.1.11-.65.17-.91a3.17,3.17,0,0,1,.16-.56.88.88,0,0,1,.41-.42,1.56,1.56,0,0,1,.56-.17.29.29,0,0,1,.22.07.48.48,0,0,1,.08.23,2,2,0,0,1,0,.31c0,.12-.07.25-.11.38s-.09.25-.13.38l-.11.32a4.7,4.7,0,0,0-.18.74c0,.26-.08.51-.11.76.09-.14.2-.34.35-.61a9.06,9.06,0,0,1,.49-.77,4.23,4.23,0,0,1,.56-.67.92.92,0,0,1,.55-.3.39.39,0,0,1,.3.09,1.12,1.12,0,0,1,.18.28,1.91,1.91,0,0,1,.1.34c0,.12,0,.23,0,.31,0,.25,0,.5,0,.76l0,.75,0,.41a1.67,1.67,0,0,0,.08.4l0,0s0,0,0,0,.06,0,.09-.1l.07-.15c.14-.27.29-.53.45-.79l.48-.78.33-.54a4.89,4.89,0,0,1,.41-.6,2.54,2.54,0,0,1,.48-.5,1,1,0,0,1,.57-.24.65.65,0,0,1,.37.08.78.78,0,0,1,.27.24,1.19,1.19,0,0,1,.16.34,1.16,1.16,0,0,1,.07.37,10.73,10.73,0,0,1,0,1.5c0,.5,0,1,0,1.5,0,.06,0,.13,0,.22a.79.79,0,0,0,.06.22.42.42,0,0,0,.11.18.25.25,0,0,0,.21.06,1,1,0,0,0,.49-.21,3.65,3.65,0,0,0,.52-.46,4.78,4.78,0,0,0,.47-.54c.15-.19.26-.34.34-.46l.15-.23a.33.33,0,0,1,.23-.14.15.15,0,0,1,.15.09.48.48,0,0,1,.05.17.25.25,0,0,1,0,.14.74.74,0,0,1-.08.13,6.66,6.66,0,0,1-.47.65,7.08,7.08,0,0,1-.65.71,4.52,4.52,0,0,1-.75.59,1.4,1.4,0,0,1-.71.27.64.64,0,0,1-.52-.15,1.21,1.21,0,0,1-.29-.43,2.18,2.18,0,0,1-.15-.57c0-.2,0-.37-.06-.53,0-.39,0-.78,0-1.17a9.33,9.33,0,0,0,0-1.18.76.76,0,0,0,0-.14,1.16,1.16,0,0,0,0-.18.39.39,0,0,0-.08-.14.14.14,0,0,0-.12-.06c-.11,0-.23.1-.38.27a5.11,5.11,0,0,0-.45.65c-.16.26-.33.55-.49.87s-.32.63-.47.92l-.38.8c-.11.24-.2.41-.26.52a.64.64,0,0,1-.13.18.33.33,0,0,1-.2.08C106.4,180.76,106.32,180.69,106.25,180.53Z" />
            <path class="cls-5"
                d="M113.7,179.1a2.7,2.7,0,0,0,.08.39,1,1,0,0,0,.16.33.29.29,0,0,0,.27.12.94.94,0,0,0,.55-.27,4.89,4.89,0,0,0,.56-.62,6.33,6.33,0,0,0,.48-.71c.15-.25.26-.44.33-.58l.14-.22a.24.24,0,0,1,.21-.13c.08,0,.14,0,.15.08a.58.58,0,0,1,0,.19.32.32,0,0,1,0,.16l-.09.19a1.65,1.65,0,0,1-.1.19l-.09.15c-.11.18-.25.39-.43.64a7.72,7.72,0,0,1-.58.73,5.25,5.25,0,0,1-.67.6,1.46,1.46,0,0,1-.7.27.79.79,0,0,1-.63-.2,1.78,1.78,0,0,1-.4-.56,2.78,2.78,0,0,1-.21-.71,5,5,0,0,1-.09-.67,5.79,5.79,0,0,1,0-.81,6.54,6.54,0,0,1,.14-.8,1.56,1.56,0,0,1,.28-.61.76.76,0,0,1,.6-.29.26.26,0,0,1,.31.27,1.15,1.15,0,0,1,0,.31,2.83,2.83,0,0,1-.09.37c0,.13-.07.26-.1.38a3.21,3.21,0,0,0-.08.34,5,5,0,0,0,0,1.16C113.68,178.87,113.69,179,113.7,179.1Zm.52-5a.55.55,0,0,1,.14.33.75.75,0,0,1-.15.49.54.54,0,0,1-.42.24.39.39,0,0,1-.34-.13.55.55,0,0,1-.14-.33.77.77,0,0,1,.14-.48.53.53,0,0,1,.42-.25A.41.41,0,0,1,114.22,174.09Z" />
            <path class="cls-5"
                d="M70.83,194.32a.52.52,0,0,1,.33-.19.43.43,0,0,1,.23.05.8.8,0,0,1,.17.15,3.39,3.39,0,0,1,.53.63,8.61,8.61,0,0,1,.46.79,6.94,6.94,0,0,1,.39.83,6.64,6.64,0,0,1,.27.78c.27-.57.53-1.14.79-1.71s.56-1.13.89-1.68l.13-.18a.23.23,0,0,1,.19-.11.37.37,0,0,1,.24.07.27.27,0,0,1,.13.2.18.18,0,0,1,0,.11.56.56,0,0,1,0,.08,5.27,5.27,0,0,0-.28.48l-.42.79c-.15.29-.31.6-.47.93s-.31.63-.44.93-.26.54-.35.76a2.29,2.29,0,0,0-.16.46,1.24,1.24,0,0,1-.08.32c0,.09-.12.14-.28.15s-.28,0-.31-.12a1.82,1.82,0,0,1-.11-.33,7,7,0,0,0-.26-.86,9.82,9.82,0,0,0-.43-1c-.16-.34-.33-.67-.5-1a3.54,3.54,0,0,0-.52-.72l-.13-.11a.26.26,0,0,1-.07-.15A.5.5,0,0,1,70.83,194.32Z" />
            <path class="cls-5"
                d="M77,197.19a2.7,2.7,0,0,0,.08.39,1,1,0,0,0,.16.33.29.29,0,0,0,.27.12.93.93,0,0,0,.55-.28,4.18,4.18,0,0,0,.56-.61,6.33,6.33,0,0,0,.48-.71c.15-.25.26-.44.33-.58l.14-.22a.24.24,0,0,1,.21-.13.12.12,0,0,1,.15.08.58.58,0,0,1,0,.19.32.32,0,0,1,0,.16,1.63,1.63,0,0,1-.09.19c0,.07-.07.13-.1.19l-.09.15c-.11.18-.25.39-.43.64a7.72,7.72,0,0,1-.58.73,5.25,5.25,0,0,1-.67.6,1.46,1.46,0,0,1-.7.27.79.79,0,0,1-.63-.2,1.78,1.78,0,0,1-.4-.56,3.26,3.26,0,0,1-.22-.71c0-.26-.07-.48-.08-.67a5.79,5.79,0,0,1,0-.81,6.54,6.54,0,0,1,.14-.8,1.56,1.56,0,0,1,.28-.61.76.76,0,0,1,.6-.29.26.26,0,0,1,.31.27,1.15,1.15,0,0,1,0,.31,2.83,2.83,0,0,1-.09.37c0,.13-.07.25-.1.38a3.21,3.21,0,0,0-.08.34,5,5,0,0,0,0,1.16C77,197,77,197.06,77,197.19Zm.52-5a.55.55,0,0,1,.14.33.75.75,0,0,1-.15.49.55.55,0,0,1-.43.24.37.37,0,0,1-.33-.13.55.55,0,0,1-.14-.33.77.77,0,0,1,.14-.48.53.53,0,0,1,.42-.25A.41.41,0,0,1,77.53,192.18Z" />
            <path class="cls-5"
                d="M81.66,196.84a6.25,6.25,0,0,1-.57.58,4,4,0,0,1-.64.48,1.32,1.32,0,0,1-.61.23.57.57,0,0,1-.36-.11.94.94,0,0,1-.26-.3,1.71,1.71,0,0,1-.17-.39A3.35,3.35,0,0,1,79,197a3.63,3.63,0,0,1,.24-1.51,3.36,3.36,0,0,1,.82-1.28,2.51,2.51,0,0,1,.52-.39,1.45,1.45,0,0,1,.62-.2.84.84,0,0,1,.68.25,8.35,8.35,0,0,1,0-.87,10.53,10.53,0,0,1,.09-1.07q.08-.55.18-1.14a11.45,11.45,0,0,1,.28-1.12,7.84,7.84,0,0,1,.37-1,2.57,2.57,0,0,1,.46-.7,3.09,3.09,0,0,1,.32-.29.67.67,0,0,1,.37-.15.5.5,0,0,1,.39.13,1.13,1.13,0,0,1,.24.36,2.59,2.59,0,0,1,.14.45c0,.16,0,.3,0,.41a6.4,6.4,0,0,1-.12,1.57,15.44,15.44,0,0,1-.43,1.82q-.27.93-.6,1.8c-.21.57-.41,1.07-.59,1.49,0,.1,0,.26,0,.48s.06.44.11.67a2.41,2.41,0,0,0,.21.59q.13.26.33.24a1,1,0,0,0,.57-.24,2.83,2.83,0,0,0,.53-.51,4.74,4.74,0,0,0,.46-.62c.13-.22.24-.4.32-.56l.15-.27a.32.32,0,0,1,.22-.17.15.15,0,0,1,.16.08.58.58,0,0,1,0,.18.49.49,0,0,1-.06.29q-.07.15-.15.27c-.12.22-.27.46-.43.71a5.31,5.31,0,0,1-.54.71,3.5,3.5,0,0,1-.66.56,1.68,1.68,0,0,1-.77.26A.82.82,0,0,1,83,198a2,2,0,0,1-.42-.49,3,3,0,0,1-.28-.63,4.86,4.86,0,0,1-.16-.59Zm-.63-2.1a3.29,3.29,0,0,0-.7.74,3.77,3.77,0,0,0-.46.92,2.31,2.31,0,0,0-.13.9,1.15,1.15,0,0,0,0,.16.1.1,0,0,0,.12.09,1.06,1.06,0,0,0,.53-.27,5.81,5.81,0,0,0,.64-.59c.21-.22.4-.44.58-.66a2.57,2.57,0,0,0,.33-.51,5.32,5.32,0,0,1-.06-.56c0-.18,0-.36,0-.55A1.52,1.52,0,0,0,81,194.74Zm1.83-.26c.15-.37.3-.81.47-1.31s.32-1,.45-1.52a14.72,14.72,0,0,0,.32-1.55,6,6,0,0,0,.08-1.36.28.28,0,0,0,0-.08.69.69,0,0,0,0-.13.23.23,0,0,0,0-.1.07.07,0,0,0-.08,0,.16.16,0,0,0-.12.06l-.08.09a2.26,2.26,0,0,0-.3.64,8.9,8.9,0,0,0-.25,1c-.08.37-.14.76-.2,1.17s-.11.81-.15,1.2-.07.73-.08,1.05,0,.57,0,.76Z" />
            <path class="cls-5"
                d="M91.09,195.65l-.16.27c-.11.18-.25.38-.4.6a5.56,5.56,0,0,1-.53.65,2.77,2.77,0,0,1-.62.52,1.27,1.27,0,0,1-.66.24.65.65,0,0,1-.54-.19,1.54,1.54,0,0,1-.33-.52,2.93,2.93,0,0,1-.18-.66,4.55,4.55,0,0,1,0-.57c-.08.13-.17.3-.29.51a5.79,5.79,0,0,1-.42.59,3.27,3.27,0,0,1-.48.5.87.87,0,0,1-.51.23.61.61,0,0,1-.4-.11,1,1,0,0,1-.26-.34,2,2,0,0,1-.15-.43,4.07,4.07,0,0,1-.06-.41,3.57,3.57,0,0,1,.17-1.18,6.26,6.26,0,0,1,.57-1.27,4.34,4.34,0,0,1,.87-1,1.84,1.84,0,0,1,1.07-.47.43.43,0,0,1,.3.12.35.35,0,0,1,.16.26.17.17,0,0,1,0,.1l-.09.06c-.22.16-.44.32-.64.48a4.38,4.38,0,0,0-.57.57,4.26,4.26,0,0,0-.72,1.21,3.29,3.29,0,0,0-.21,1.4,1,1,0,0,0,0,.2.13.13,0,0,0,.15.1.48.48,0,0,0,.31-.19,3.19,3.19,0,0,0,.35-.47,6,6,0,0,0,.34-.62c.11-.23.22-.45.32-.67s.18-.41.25-.59.12-.32.16-.41a1.51,1.51,0,0,1,.15-.28.3.3,0,0,1,.27-.14.47.47,0,0,1,.2,0,.18.18,0,0,1,.11.17,1.34,1.34,0,0,1-.07.38c-.05.16-.09.29-.11.38a4.28,4.28,0,0,0-.11.73,5.84,5.84,0,0,0,0,.73c0,.07,0,.17,0,.31a3.83,3.83,0,0,0,.08.42,1,1,0,0,0,.15.36.24.24,0,0,0,.25.15.91.91,0,0,0,.5-.24,4.42,4.42,0,0,0,.53-.53,5.41,5.41,0,0,0,.46-.61,4.75,4.75,0,0,0,.32-.5,2.53,2.53,0,0,1,.13-.22.27.27,0,0,1,.21-.13c.14,0,.22.07.23.23A.6.6,0,0,1,91.09,195.65Z" />
            <path class="cls-5"
                d="M91.72,197.3a.47.47,0,0,1-.18-.36,1.18,1.18,0,0,1,.07-.45.36.36,0,0,1,.34-.24.61.61,0,0,1,.4.12.47.47,0,0,1,.2.36,1.12,1.12,0,0,1-.06.46.37.37,0,0,1-.38.23A.54.54,0,0,1,91.72,197.3Z" />
            <path class="cls-5"
                d="M94.68,197.11a.51.51,0,0,1-.18-.37,1,1,0,0,1,.07-.45.35.35,0,0,1,.34-.24.57.57,0,0,1,.39.12.45.45,0,0,1,.2.36,1,1,0,0,1,0,.47.38.38,0,0,1-.38.22A.58.58,0,0,1,94.68,197.11Z" />
            <path class="cls-5"
                d="M97.64,196.91a.49.49,0,0,1-.18-.37,1.06,1.06,0,0,1,.07-.45.34.34,0,0,1,.34-.24.57.57,0,0,1,.39.12.49.49,0,0,1,.2.36,1.42,1.42,0,0,1,0,.47c0,.14-.18.21-.38.23A.54.54,0,0,1,97.64,196.91Z" />
        </g>
    </g>
</svg>